<mxfile host="Electron" agent="Mozilla/5.0 (Macintosh; Intel Mac OS X 10_15_7) AppleWebKit/537.36 (KHTML, like Gecko) draw.io/24.7.8 Chrome/128.0.6613.36 Electron/32.0.1 Safari/537.36" version="24.7.8">
  <diagram id="io6J4X4hzj0A7wCSBbrt" name="ページ1">
    <mxGraphModel dx="1339" dy="943" grid="1" gridSize="10" guides="1" tooltips="1" connect="1" arrows="1" fold="1" page="1" pageScale="1" pageWidth="1169" pageHeight="827" math="0" shadow="0">
      <root>
        <mxCell id="0" />
        <mxCell id="1" parent="0" />
        <mxCell id="hCcCfoWqwZ7aWY5XVPd_-11" value="" style="rounded=0;whiteSpace=wrap;html=1;fillColor=#21C0A5;strokeColor=#006658;labelBackgroundColor=none;fontColor=#5C5C5C;" parent="1" vertex="1">
          <mxGeometry x="321.2" y="30" width="810" height="450" as="geometry" />
        </mxCell>
        <mxCell id="AVn70WAmfpdutKoN9BU6-4" style="edgeStyle=orthogonalEdgeStyle;rounded=0;orthogonalLoop=1;jettySize=auto;html=1;strokeColor=#006658;fontColor=#5C5C5C;fillColor=#21C0A5;curved=1;strokeWidth=2;" edge="1" parent="1" source="hCcCfoWqwZ7aWY5XVPd_-1" target="hCcCfoWqwZ7aWY5XVPd_-8">
          <mxGeometry relative="1" as="geometry" />
        </mxCell>
        <mxCell id="AVn70WAmfpdutKoN9BU6-6" value="Subscribe" style="edgeLabel;html=1;align=center;verticalAlign=middle;resizable=0;points=[];strokeColor=#006658;fontColor=#5C5C5C;fillColor=#21C0A5;labelBackgroundColor=none;fontSize=20;" vertex="1" connectable="0" parent="AVn70WAmfpdutKoN9BU6-4">
          <mxGeometry x="0.5233" y="-38" relative="1" as="geometry">
            <mxPoint x="-61" y="-11" as="offset" />
          </mxGeometry>
        </mxCell>
        <mxCell id="hCcCfoWqwZ7aWY5XVPd_-1" value="" style="aspect=fixed;html=1;points=[];align=center;image;fontSize=12;image=img/lib/mscae/Cache_Redis_Product.svg;labelBackgroundColor=none;fillColor=#21C0A5;strokeColor=#006658;fontColor=#5C5C5C;" parent="1" vertex="1">
          <mxGeometry x="1001.2" y="360" width="95.24" height="80" as="geometry" />
        </mxCell>
        <mxCell id="hCcCfoWqwZ7aWY5XVPd_-2" value="" style="shape=image;verticalLabelPosition=bottom;labelBackgroundColor=none;verticalAlign=top;aspect=fixed;imageAspect=0;image=data:image/png,iVBORw0KGgoAAAANSUhEUgAABAAAAAEfCAYAAADfpbRqAAAgAElEQVR4Aey9C4hl53kluhFhCMYIIYQwxpghBDMY43FsYXKNrmnikBsHx6NHt9zdUnd1dRxdYYIxJphgTOgQhhAGTxhnwtwwdzAhk4RRrhPLrYcVJxa5trurqqXcGKM4sl5+xPE4QlfottSnqoWoy/q+b/3/t3edqq46tc97FRz23v9r77POo85a3/q+3TT6EwJCQAgIASEgBISAEBACQkAICAEhIASEgBAQAkJACAgBISAEhIAQEAJCQAgIASEgBISAEBACeyJw7+P//Ia71668RY/xYPDB/752/Z4vgDqFgBAQAkJACAgBISAEhIAQEAJCQAiMG4Hjf/X9N5+5tPm3p9cGL5+6ePDHPRcHL0/ycffFwcujPE5eHLx84MeFwcsnD/g4cWHwcvtx5dsfuv/J9477ddT6QkAICAEhIASEgBAQAkJACAgBISAEdkWA5H9lfXP79Npg+9TFwfbpNeznx2D71NrOdow9tbZpc05d3PT9tc3te9iOPqyJtrVBtMccm+ftZR0bz3XS2tGOdW2dtc3tu+08mO/7d3f74pzeHmNi7MnOFmudvDgoDzvGmIv+OHlhsG2POLb2C5ulLfedvLC5fQLjL2JN7F/54e1feubnzp3bvm7XF0EdQkAICAEhIASEgBAQAkJACAgBISAExonA8b/6R4v8g/xXAQCEPh5B3p3kd4h5EHiS93soAAT5N7IOUo5j9lEM4PocS4JvAgTPzfPFNtZwEQCEHmu72ECi7mIARAKKAiEQgLiD5NtjYFvMcdLv7VUECNKP/rUg8iD7WQzA/gV/kPyD+NuaFwbbJ4z4D4z8/7svfufnRf7H+S7W2kJACAgBISAEhIAQEAJCQAgIASGwJwIe+R/8rZF/i/Yjwl8dAIW0G0n36L+R/Yub26fj4cc+h30mBICYx1ouBICo0ynggkARBozEh2vAxIIkGMQcX8PFBOyT8CO63344CTdhwCL4eWwQfpD6tYELAkbykzBAF4A5AqIdbYzomxMgCQR0BpQtXAH+OHFh8EOQ/+bcOUX+93wnqlMICAEhIASEgBAQAkJACAgBISAExobA8a8j53/wmEf+nfiD/FcBgEJA3SIlgGkAIPt2XAg77Pph9Q/BwASBlA7ghN/HmThg42MenQIhGthasU6ZF2OKGBAE36L97DNi7w4AG5fHWDQfxN+t/ju2JP8QFdIYCAwQABDxz0KAiRCF+KPfxQaMOXFR5H9sb14tLASEgBAQAkJACAgBISAEhIAQEAL7Q+Dux/7pLSuXBl85bTn/bv2vKQAp779TCwBpAFYXAO1D+ixNIPLymUIAcs52bnNb3md/3u7Wj3Y8YNvnPre1zaP8HId2f7itH/tm6y/t7I90ARMCsvWf0f0QBHI9gLR/kuR/fy+HRgkBISAEhIAQEAJCQAgIASEgBISAEOgfgVNf++e3gvyvrA+2V8L2z9x/dwCQsHvk38h4ydfPfdUNQGcAibtH973f0wi8cF9JKQgnAfv8HBG1NwdAzGVdADoKUhFBJ/UecUekHxF7SwUwMs+1EqFnVN9If9QAiP0iCtgaNR2grBfF/Dy/H/b/GulvpyJYisEPbzv/9C/0/8ppRSEgBISAEBACQkAICAEhIASEgBAQAvtEIMj/o4z2F/v/eqQAhCPArf21ECDy/RnRt30Q86FtIRpYWkB7TB6/s25ASh2wuVgH85kekNfycxjpNyIexN9SAEjOXQBwUcBrD6AmAMk6i/kZoc+2/xjDfmyvuR+F/2KtH97+wDO/uM+XQ8OEgBAQAkJACAgBISAEhIAQEAJCQAj0j0CQ/0dI/mH/b0f+PaefaQEe1WfEP21BzJkKkLbM90cfyDndAHac0wBivvWHiGC5+iEaWKFACgyxRbQ/rwdxINv9PVK/0+6frf/c97sAMMpvEfty6z8j/HAFdB8d8YDCgG1r5f8f3Hn+2V/q/5XTikJACAgBISAEhIAQEAJCQAgIASEgBPaJwKmv/b9vXdkYGPlnoT+3/9f8fyf+gyIKgNDnyH8h4EHa6RIodwOIAoA10u9RfBMDgtzXPo/oe6X+eis/ji0iQBB/O7bz+tgiAJS7B7joACEAYxH5N4EgiLu1MbrPOwDwOKL8TurD2l+cBe4AaBF+jE9Rf3MVXBiI/O/zvahhQkAICAEhIASEgBAQAkJACAgBITAmBFrk36z+UcgvHADmCIhaABAH6ArINv0qBAyz+NdoP0h3FQrqLfuM+JOU2xi39qNWgJN+t/u7EyCs/8kdkK8F+yD0GOu5+DyP2/+5BiP+yO+3sXF3gEzmzbaPmgEg9UkYOJnSArBv/bwDAKr+o40iwIXBD27/0rMfGtPLp2WFgBAQAkJACAgBISAEhIAQEAJCQAhcG4FM/p3oD7Yt0k/7f8r5R0T/NASCaCtEPki99TPKX0i8iwk2lrZ/RuVTdX70UxwAec/HPA/783Fuwz6PuW/kPp1nxzHEgqjw71tPE/Cif1Eg0BwDLBY4pD8EAiP8cStAkf9rv/c0QggIASEgBISAEBACQkAICAEhIAQmhECX/Gfizyg/o/+2TY4AJ/udXP+Lm5YSUPuiZgCEg4jWG3kPgl9IvvVVlwAJvvUzNSA7BxLRz2Nb+yEyWJG/FsF3Ik/LP8k/hQEj/rT8myPAxyPnv/RF/j+OSy2ASBcwJwD3Ffmf0DtZpxECQkAICAEhIASEgBAQAkJACAiBXREA+T+9PniIxJ639+Mx8v/LPoh/HMMBgHaS/NOlDoDn89d2jKkCQLHod4i8taMt3AEl+l+IvwsD1k4HAdcwIaHTn8YYuYcQwAj9ECcACLv3u43fSD7J/pCtWftTe7H/IyUAln/a/i8OfnDHg899eNcXQB1CQAgIASEgBISAEBACQkAICAEhIATGjcDdj/3TW1jwz8g8I/uR398i/tbnpD+3g+gj4k7Cv999jAPhPtVKFfC1LIJPdwC3JPsjbHGe/T4gBPidAmj1z9tdbP9JCPD5vI3g4Ad3PCDyP+73sdYXAkJACAgBISAEhIAQEAJCQAgIgT0QyOQf5N1IfUTqWfWfkXse+5bR/MH2io33YxB5cwGAoEfU3sUBj8ybQIDUgEz4W+S+3gkABf9MBLAt9v1BV4C7BHx8FRIoHuTig75OLexXo/xWVDCIexEHULAPbcz1j2Pa+83qX8ZgbBT5sxQAFhos5P+HKvi3xxtQXUJACAgBISAEhIAQEAJCQAgIASEwfgTObPzLm1YuDR71SH6N6hdbP50AsPin/VbkP9orsU95/7kGAFIDmAJgAkC1+XvF/yDuLTGg0xZ9IPK8S0BrLp0E1h9juF6x9mdij6h+WP0LoU9tOaKfBYHYtzoAIRLgTgEUDMr+xYHI//jfxjqDEBACQkAICAEhIASEgBAQAkJACOyFQJv8R36+3fIviHqQfooBmfRj3wg/yT+PLeoPYg8RgAQcjgBvQ8SeQkEh7lGcz45tHOdVB4E7CdDOh9+mD8dFDIhzwB1A54DtB/H3sZgHop5If9o3h4Ads7+ONVJPQYBFAYP0o4/93N69NviRIv97vQPVJwSEgBAQAkJACAgBISAEhIAQEAJjR+DUN/7nzSsbg68YqUeev+XuO/H3tk7Bv0LwY0yx/IdrICL7ZtFPxJ+k3gSAqPxvAkDUCnDbvpN4kO/68Mi/2/P9tnyF1K8F6U81ALyGAK3/zPPHvHjgmiz/P9aKaD/m1bsCuJW/pAFEvQAWATT7Pwr78QHbvz1cJPD0gEgdWB/8+M7zz/7S2F9InUAICAEhIASEgBAQAkJACAgBISAEhMBuCID8n94Y/A2JPq39sOeXHH8j/N1jFwU4zubDAcC7AbAAYNj7QfoZ7efWnQE1RSC7ACgWYGtkv7gGUhpAifJnlwDdAHQZ+LHVCcB4uhJA6MNt4Pn9FBY6roBC/GsdgJbV3/L9q92/VSsAgsL64Me3P/DML+6Gv9qFgBAQAkJACAgBISAEhIAQEAJCQAiMHYETj//zTYX8g+Qzsh+Ev0bnaxpAm+C7KADyv3NuzElFAEn8fd2w76c6AEbOCzF3Qk6rPvtMEChWf0b0g+yHC8DIfhD34iJAwcAiGFAU8Cg/STuj/Z67Xwm/V/9PaQDM+Uf0P/Yxp9j9wxVw99qmk/9z564b+4upEwgBISAEhIAQEAJCQAgIASEgBISAEBiGwL2P/38k/6+vlFx/z/33Kv6xTzHAxtTifyTxHvkfhADgKQAUDixH36z+brn346gBkCr6YzwJPkm4EXeL1sPiH4Td7P51n+4A64/1bD4EAooBnGP2f59LUQHOAiP7lgIQ+9ZG8u9bXEtNDfBoPy3+trU6ARAAuJ7dIvDH/w62f5H/YW8/tQkBISAEhIAQEAJCQAgIASEgBITAJBA4kcj/Dgt/RPPN/t+p9G9jk80fwkGx/odQYA4B2v+N/HsBQBMFrBigpwKAhNvtAZkaYGTfhQCSeIvYUxwI+77l8Uckv4gGIRDYcdj62Ueyz7685jBizxx/CAMQFugO2OkK8HoBFvWPcagBEPMV+Z/EG1nnEAJCQAgIASEgBISAEBACQkAICIHdEWiT/1rcj1H7TOjN2h8W/dzudv9E/rtjQgBwkp9y/ykAtEi/OwLKnQEYuY9CfRblj0KCVguAgkAU9AOxZ7S/u0/SbykBFA3CHUAhwcSGZOPHsZH/lPvPMdaH/rVNK/hXxYJIBfA+L/inyP/ub0L1CAEhIASEgBAQAkJACAgBISAEhMB4Ecjkv5B7WvyDtBvRRwHAbvQf0f4o8Me53THejjQB5P8H8ec2CHgpBhhEPo/zuwaExd/y/KsjwMi81QdgOgH7akV/CgDM+2e03wSAIhykdIM4h+f4R7TfBIBUENDO6ZX93QXQFgCsBkCIBsj5t2r/Iv/jfSNrdSEgBISAEBACQkAICAEhIASEgBDYHYFT37h888qlwaPDSHsh7iDrkQLg28jtDzGAhf58fBIJzAGQjk1UiOr+Ee0HGW/d/o+CAM6Z+nLEv0bw063+ssU/1kBknmON9JdoP0WCekcAEwnSPIvuw8LPR5B5t/+z/kB1BdRxuAUg55n1X+R/97efeoSAEBACQkAICAEhIASEgBAQAkJgEgic2fiXN61sDB7Zjfzv1e55/yT3vkWE3+d4pf9h83Nkf7d9SxEAeUc9AJL4HOWPPif3jPzHthQRrBF9G5fW8WOO3zkuW/uH7Xv+vxcAdKEgcvytKGC4Atz2/4Ii/5N4J+scQkAICAEhIASEgBAQAkJACAgBIbArAiD/p9cHDxlJh4XfHiTwXgMAJB8EHGMQ5betuQFqO0n+sKKB7LNtpA8U0h/5+3Yckf6S7x/En2ORAgCiPYzIW85+Iv1dwp7nIHqPNABrY7Q/7P65z/eDyGNO5P1zy8r/PMYWbX4HgJIy8MLtX/rOh1Ttf9e3oDqEgBAQAkJACAgBISAEhIAQEAJCYNwInP36C28+E+TfSbZH7J3whwjAHP2w8XNci9S36gT4GrnfUwPy2n4LQRJ7J/wg5E7Krfp/OW9NDfAaAG73NwJPK78R80gDMGLP/SoWeN4/SHw9T60BMNhmaoGv62OM0Jdq/x7pd4u/CxFwABSRIN0yMFf7v+OBpz/cNM11434ttb4QEAJCQAgIASEgBISAEBACQkAICIGhCID8r2xcOX+GxfwKwa8EnsTdyTwEARcFQNwLwcc8Wv6TS6C21X5PF6CDAOfpFgL0cyMy3+7zWwJ6xN5FAifvvu/R/NiPKP3OsS4GuBDghB+pBcUFQGHA7gKQ1rLjKDwYDgSIADXqP9hGkUAel8r/a5s/uvP887eJ/A99+6lRCAgBISAEhIAQEAJCQAgIASEgBCaBwN1rL75ldePKA2fWN18vRJ5CwCG2JT2gVSiwpg3kcxnBRwQ/k32mAEQbSL4VAORx2P9Bto24Y5vIeCHzsS7HWJQ+CQM8bvWnddDPdS3Kz8J/sQYj/yT7baeAWf9F/ifxRtY5hIAQEAJCQAgIASEgBISAEBACQmB3BDL5P5Pz/VtRfVr0ww1gBNz3Gf3nttz6b8f8GsVfSbcNdFeB91XCHpH4EoUPgt8h8hxvBB1j2d+K5O8+16P0UbmfYsKQuVwfbgHk9OPYbwWIaH+O/sd+u+1Htz/43TsU+d/9PageISAEhIAQEAJCQAgIASEgBISAEBgzAi3yv765Xez/+436k8jbtooDFtkvAkAqIGht6RjnyRH/KC7YtvtX4QDtbtNHCkCN+nsef9jyWbzPxAMfU/qzU6DsU2yo69EJ0N3S1s8trf4mBth5q/U/xvzo6CMi/2N+G2t5ISAEhIAQEAJCQAgIASEgBISAENgLgS75L1F5VuVnIT/b1hx/KwgYAgFz+L0Nuf3uFKC134j8jrE1BaDOd4u9EfyI5JPsO9FHdB8CA0h6ztfPUf9E9kMc8AJ+aY5Z9n0tkPuS/1+EhSgK2JkPMl9TAGrU3wQAuAGs4B8LARYR4Ici/3u9A9UnBISAEBACQkAICAEhIASEgBAQAmNHAOT/zKUrf4mc/zNrg2170AFQIveJzIflH8TeSDtFAmwxPh7e5wSf5J5uAB6bKBDzcpsR/MjxB9m2XH8QcVjyQf7LftwFINrN9g/LvR0nUh9tsOv7w+8EYHb+IeNrezgB0vwqFvAWgC4CeOQfbXwE+d/Y/OEdD3/vqGz/Y38r6wRCQAgIASEgBISAEBACQkAICAEhsBsCqPbPgn+w/HcfbUt+235v5D0cATl334WBIP5D+stY9A3rh8CQSP9+9kn8W9ti6w8SP8Ix7f1G+qPIH9tY5G+3rY1b3/zRUeX87/b2U7sQEAJCQAgIASEgBISAEBACQkAITAKBM4/9y5tI/kH0S85/ivozml9IfSvCn6P97bSAVqQ/1oNgwHbbMud/3e38PJdb+11sAPE2ASBqA9hxWPCxb46AIPZm4SdJH+IAIIm3eTHuoPtm/4+5Vu0/7fOYtQDuWRP5n8T7WOcQAkJACAgBISAEhIAQEAJCQAgIgT0QyOTfov4QAEIE8G0U57NCfJHPz4g9o/Yg5bbvBL5E8zEnj43xWURojeX4so0aAJF7D5Juln/L908F/0oqAFMDwvpvgoBb/M0RkAQCEn62G6G3dAKv2I92s/9HbQFPJXArf3EXFJHB53jOv88rdwFY3/yxcv73eAOqSwgIASEgBISAEBACQkAICAEhIATGj8Cpb/zPm1fWr5xHzj8j8dX673n8dgtAi8zXYn4lRz8K+RmhD6LPdUDsh++HSGCiQRYMsF/vBFCEAaQABPEv25wWECQfRQBPp2i/E/so7BfEnmS/td2lj7UDnOzjjgB+mz8vNliLDFodgTXP9bf9yPsP2/+Pdau/8b+PdQYhIASEgBAQAkJACAgBISAEhIAQ2AOBE4/9802F/JudH4S/EvBcBBDtRs5tGwX/SsTfhQETATgu9eU1neD7WiT72PJR1kjzrY8iAM8flf99HgUCrBMV/+PWe60oPyL6IPHlbgFxFwDMYfE/9A05ZvTfyD+i/iE0mChglf6j2B/27Ryb2/esb74g8r/HG1BdQkAICAEhIASEgBAQAkJACAgBITB+BI59+Qc3nlkfPMRq/0bSW7n/IQZYOoA7ASz6HgIBiLdF98txivaXNifkhdQPI/oYi+g++uggsGNv87x+Evuo+h8Rfyf7Q9oS+S9kP4h9Pc7FAMMlEOKBiwYe8a/7bvG3+XF+9iHSX3L+IyXg1MbWi3eef/42Vfsf/3tZZxACQkAICAEhIASEgBAQAkJACAiBXRAw8r8xeKSSfxTwG+ws/MdCfWblB0FnpB75/k7KPQLv7SYIJNu/H7tQUOz8RvRjblrPRAIKALFGy+4fokDLfm9ReCfqLk64E6DY+yOS70Tdo/yM9DOiD0Lvuf818u+W/ywQeF0BzOkKANZ2Ebf+83VsrY2tF+948LkPi/zv8gZUsxAQAkJACAgBISAEhIAQEAJCQAiMHwEj/5cGj1rOPyP+IP8hAFjRP4vK1zYj8hG9J8lvEf9S2T+EgF2PParfXaN1XKz/TubLeSIFgAIA7wZgDgGmA1guf4rm45hR/bRP+76RdRMJdqYFmDBQbP5u+a/kvx67ABAFADGe5P/cuevG/2rqDEJACAgBISAEhIAQEAJCQAgIASEgBIYgELb/Evn3iv/V6m8uANYCQBQ+hABsEWEHUbdtiAEg597G4oBO8Ena2Vcs/mVeJfdck3NszTIOZB5V//38IPtO/IPk574oEkhBoEb1ndzX6L1H6j21wGsAVBIfLgDWCLCif5yfxQQ/v4sELgag4r/I/5A3nZqEgBAQAkJACAgBISAEhIAQEAJCYLIIDCX/65vF9g8xwAWAGvm3tvVaFJCEvpD1ZPev6QHhAkh9Nq9E9of0h7iQx1VhIMQCRveNnLsgUGz/qUAgiL1H6pOlvxXl95SB4gxoOQS8zxwCbC9igAsAWUjwdAKP/p9aD9u/Iv+TfWPrbEJACAgBISAEhIAQEAJCQAgIASFQEQD5P7vuOf8rQehJ+BGddyfA5nax/2MMSXmK8oOUO0l3Es/b/DkRr8S+CARcI5wDpd3EBroFaj2BujYdAszbd2KO8zDC784A9js5x/pG7Fnt3yr7e+V/J/wd8k+Lf0oPYIpBqQPAMWntPAa3/TPy/8BzH25E/uubTntCQAgIASEgBISAEBACQkAICAEhMFkEQP5X1wcPra5vvW4EH1F/EPNS3T+K/1kdAIoATvQpDDAa39qC1Bdi74S91V+Eg5o64AJAIv6RWjBMSGB0n4SeWxcB/HxG0iNSX2sCRLV+FuULRwCIukX2KQrEcbH/Yxza7BZ/EdWPfZzbiH5nK/I/2feyziYEhIAQEAJCQAgIASEgBISAEBACuyBw4rF/vml1/cr5Qv5Z9C8i+e4CcDHA7P8pJQBkvtQAiPHW1rHyg9SzndtWpJ9CwTCxYEdfdRZUsSCRfasFEPb/Yvt3QcGdATlPP8i8kfZOHr+lE4Slv5D6cA+Yy4BzmU6Q1k3rKfK/yxtPzUJACAgBISAEhIAQEAJCQAgIASEwOQROPfrMzasbVx4A+V8NYs+IPir+k6xTBPBt+1aAbKskPxX9i0J9WMei9SEScCwJPM/jx07e2eZzg/RbukCszzWZhx+E3aL8tu/FAYsrwIoBMj2AxD6PqeTeo/y5L6L7ySGQnQWtuwGUdACz/b905/lnbpPtf3LvaZ1JCAgBISAEhIAQEAJCQAgIASEgBDoInHns+TedXd/8yxr53yr5/fV2fyj2x3SA2C/pAX5cHACpKr8TfJJ2v4MAyf0OQo/K/FEHwC39Po93BcD6nOvrejSfbV6p3yvuI+++3A0g8vF9zRAgrFif5/gbabcxsPXHAxX9o6q/CQe2T8s/+hj191QBTwWIOd2561svHn3w2TuaptGt/jrvPR0KASEgBISAEBACQkAICAEhIASEwIQQOPPYv7xpdW3zCx7539peXSf5rxX/vcBf3P6vlQ7QcQZYGoCT8nbUvt3mhN1z/TmukvO6puX6g8gPvbMAawVAFAhSH5F9HHtRvuhjxD9Iv40Pl4CT/BrV57ySIlBqALgw4P11fcvrx1pMBaAzgG6E9c0X7jj/3FGR/wm9oXUaISAEhIAQEAJCQAgIASEgBISAENiJwPG/+v6bSf4R3S/kP+X2WxoAj63wXyXoTAdgPQCP1AcxN1s+I/a1zaL+Ydl3BwAj8rFNfVUcgAhQ12D0v/ZvbrOoXxEDIAqgBgBFAasHkM5Fe34i+E7i3f5PYm9bkvlwB7RFAHcAYO6OOetXf3znQ8/dJfK/872nFiEgBISAEBACQkAICAEhIASEgBCYEAJG/tc3/9xt/x75bwsAHvE/s+55/pYKgFoAFAG4X8QBJ+iVlEd+PusHxHjrt6g+yHgVE9Buxzau7rtbIMbxNoFxVwLOb5F+SxNoE/12v6+NNrs9H8n9jq2nB9QxLPAX7SYguFjgKQLtwn+njPx/T+R/Qu9nnUYICAEhIASEgBAQAkJACAgBISAEhiDQJv+b26uI/kd+f771n+f8t/P9KQS0x0V6QMnf70T+jZSzDWP9TgKF3HeOQc7pJuAYSwOg1d/63d7PcbDsF6KPqL+NDQcAyD2dAOYMSOQ/2/ctdz/s/THH6wPUtlojYGdbEQLWr/746CPfP67I/5A3n5qEgBAQAkJACAgBISAEhIAQEAJCYDIIZPKPiH9+kNQjGp8r/zOqn9MB8r4V/wuL/krk6xtxL21td0Ar2m9j2k4Ani9vuR5TAXAeFweC7BfST/IPgu4FAZEGwNz+ul8JPIk7yH219+d9zu9E+Yt4EGMhGoj8T+aNrLMIASEgBISAEBACQkAICAEhIASEwO4IZPJ/BsX+jOi3c/+Zz0+CDxJe7gRgdv+49R9SAUDe4RwIom+Re+b+l63n74OsO/H3ObZf5rXH+LhK8MvxkPEl0k93QDgB7C4A0cb9vCXpN4u/Efmw81MEaKUEZKs/9xPp59j1rR8p8r/7+089QkAICAEhIASEgBAQAkJACAgBITABBHCrv9X1K5bz77n+Ue3fCH6t/F8FgHrbP7f9+y0ArSaApQugv9r5LfIftntzBAT59kg98+7Dth/Re7fvO9G3fbgHSg5/3a9rQDyINeJcEADK7f9iv+UMCHLuQoFH8G1OsfuD0PO2flHp327x50Qfhf1KGoAV+qtjOc/EBJH/CbyLdQohIASEgBAQAkJACAgBISAEhIAQ2BOBYx3yb7b/tWr/P7NW3QAl8h+R/XIc0XcQ9Rz1pwsAUfpWVJ/jscUc9ud9tqWxIOd5HRMGEtk3Is95ITKAgJPgD9t2+2v0v23pv4eRfBMA2n2ck8ewTbb/Pd9+6hQCQkAICAEhIASEgBAQAkJACAiBSSBg5H/tyhdQ7X81LP8g7dh3JwAj+7616H2Mwxndq5EAACAASURBVH6x/0fU39pAwO3YI/JG7gsJr3Z+J/MesUfufk0DiDZE85kqEMKCzSkugBAD7NjdBh7dd9dAl+wbIQ8LP/vc9l9vB9hyC8St+yz3P0h/qw6AOQNo+Y/b/WH9JBSI/E/iXaxzCAEhIASEgBAQAkJACAgBISAEhMCeCJx69JmbV4P8e0X/Ntm36H4QeUbys63f9ykC1NsBmkgQDgGL7ifynyP9xYpfCvaR8NeIPaP9JOztOSl1AGvkdUIUOG2EH/n43UekBuxoz+Mqqffq/n5stn9Y/y9GSkBZI60JEWB98wXl/O/5FlTn7CPwr5qmuVGPqWFww5jvFnJ9j6/tuK919j8tukIhIASEgBAQAkJACMwqAifOP3VTIf+p2j+K/63C8m8E3tMAuuIASHmN/Ffi74JB1AbAmGTdpxDgbgASfUb/a5V/cwGYYMCigNEXDgAKCNxSGPBjjvV1PbrvYkLdd3dAPa5iA9dCBL+V178W+f6M7Ke8f47DlvPMAbCx+cKdD33vrjH/eJ/Vt5eua3EQeFvTNL/bNM1v6zEVDH4jCPo43lE/2TTN2aZp/n1Pr+2nmqaBCKA/ISAEhIAQEAJCQAgIgVlC4Nj9T95I8l/IPiP9a5smAHTbjcCT1Jv13+33EAdI7ikK4Di3l6h9cgI42Q6Sbzb/IOLYL7b/EAhiHtbNa/G8u403Ih5V/3F7P5wTbXlb9lO/zTP7fxT0Q4Qfc9Nt/SzXP46x748Yt3H1RZH/WXrH61oOgcC/aZrmPzVN8x/0mAoGvzlmAeC+pmk+29Nr+5kxXush3sKaKgSEgBAQAkJACAiBJUbgtr/8f244u775l57zj+J+Hu3P+f62H64AdwJElL8V+fcIf0kTWI/IvzkHPC3Ao/2pDoCRe4/AM2JvEf+OU4BtJPaM9pdtFAL0egSM+kOQCEGB9v8iOIS4EAICRQAXITa3kSbgwkLY/43sB5kPIYCiAJwDdd8FBS/8V8j/S3c+9Jwi/0v8GVuwpy4BYLrihwSABftA6ekIASEgBISAEBACQmBiCID8r25ceQDkH8Teqv2Xgn8s/MdtVP6Pgn6MtufovosD7gQAOTcxIMg87f8k1k62GdGvhLv25zYS9tSWxAOshfNRKBi2j5x/J/Yg6Txv3c9tcAdYdJ8Rflr9ue32d8dZPYDN7dMbV1+64/xzR2X7n9hbWicaPwISACQA7Nf9IQfA+D+POoMQEAJCQAgIASEgBPaHQJD/8xb5D/JvIoDtw/bvtn1sixuApH4NFfY9uk5ib9X+Ldofdn9zB/h+KRRoJD0s/UHY26Q9iHzqM6GA8+y8w8i+k384BJz8h2BQ5vmxkfwg607yPcJf0gGsz+8AYJF9Wv3D0s9Iv+f5p8h/FABkP7Yg/0cffPaO5ty56/b3imiUEJgLBCQASACQADAXH1VdpBAQAkJACAgBISAEAoE2+Y8Cf0H46QSoYkC7vxD9EAHc8l8t/pb3b2u5SGCugBjL6D4j9IX8B7Ev/WHN9+Mg92lMa35rrDsEWv0UE4LcuxPAI//dfbszANwBGGvkHwJBHYs2K+7Hfqv23x6LOwEY+X9A5F8fuIVEQAKABAAJAAv50daTEgJCQAgIASEgBBYSgWz7d8u/V/bfsb9Wq//TDWB2f7oAYttqC5KeRYLiENiR1+9RecwvuffFmh9EPgoKMrJvxL5E9auNvwgJu5wD67Ngn5H71jnz+ZH/78ccX273t4Zb/EEM6DxMDOD6Tv7vOP/00SNHzv3EQr6B9KSWHQEJABIAJAAs+7eAnr8QEAJCQAgIASEwHwh0yb9H55nj79X+PfJfb/dH8m9EPlwCIO0g4xhrAgDuAgDyDQGAwoAd+zgj+etO2NHvxyEAMEIfxN5IPgh6kPkiDqRjzudYHNu6RRxoH4PM2zoRzTeST+KexACz/beOvZp/Jv1e4M9FAFb7N2cAzgHb/wPP3iHyPx+fB13lSAhIAJAAIAFgpI+OJgkBISAEhIAQEAJCYIII4FZ/Zy9dsWr/Zts3oh6F/Wj/D/JuIkBU/V8Non8GVf2tsj/z/+MYlfaN+IP8d/btGGR8sH2aD0T5837nuIoF7gIoY0HuOY/bzlxLGbC+EBnMURCV/M2uf8B93vqvOxeV/0uKAJwBjPw/p8j/BN/TOtVUEJAAIAFAAsBUPno6qRAQAkJACAgBISAE9onAifNP3bS6ceULfqs/j/h7pD9H/73wnxX9K3cEqPn/iLBbxL+IBBH1Z6Tf3ABRCwCCQowzQh9EnJF7v50fovLuGLBIvhH82mZjSPqN6Keovp3T53JcOQ+vJ7kBak5/svjb7ftyGkG19vv4OA7XQHYB+H4tAliq/avg3z7fkRo2xwhIAJAAIAFgjj/AunQhIASEgBAQAkJgwREI8v8/WO0/E3/uc0vyz2Mj8WHztyh/kHyQ7RL1h/2fhJ/7sWVKgBfzgzvACX772Im9R+/dqu/rhxgQc9zuH+6BqDXAdbjlGG6tHdZ8ezjZN/IetwREFN/rA9TK/0UsMOIPEcALASLKj1SC1hbXtnH1pTu/9NxdTaNq/wv+UdLTcwQkAEgAkACgbwMhIASEgBAQAkJACMwiAqcefebm1fUrRv6d1NeI/uqa7zPH34oARiqAt3k/yLhV9o+oO9YBseet/bzqP489BQCpAiT/2MK6T/JfjyP6z+h+GefWfxtnRD+OYe1PxL/2UyhwMg/yXwUAJ/Cnw66P+X4rQCfznvPv+yYE0NofUX9W/DfSb8X/vBCgtTv5f/Hog88fb5pGt/qbxQ+ArmkcCEgAkAAgAWAcnyytKQSEgBAQAkJACAiBwyDg5P+ViPzXon5uzeexV/qHGNASAtZDKKDd3+z/EemPaL9F6YNsI8efln9zAwRR5xiQaxJzkvNybBF+5uy7A4AFAG2sEf/qDLC10nomCpTraBcPtAh/qwAg3AAe7afN39wBvEtAcQQg0h+V/cMJABEg3wXg9PrVF4499N2TIv+HeZdq7hwiIAFAAoAEgDn84OqShYAQEAJCQAgIgQVG4NhDz7/p7MYrf+a2/xrpR5TfnADcRq6/uwM8x59CgEX6Lerv5NzIvEX/Pb8fEXi0gfjnbR5Hso4t910AqIQ/CwJlXM7fH7LPNbhmrSkQAkKcz6r/Fyu/pwLsaMNYkv2I8rvVvwoArPZfBAAj/z8Q+V/gz5Ce2q4ISACQACABYNePhzoWAAHcwrfPxwJAcqin0CeWur3yoV4KTRYCQmBhEWiT/yjyB6JfHh79L8es9s/+EAdI5EnweQzyXfZLJD4s/xAFLBrvx5aDbwTe7fv1GEQ92lr9HsGnEGAEH/1FBIjCf5wb5ytrpWPP3a+5/Va1v6QCtIWCfL5c7K97yz/0nV6/+uO7HvnBPYr8L+xHSE9sbwQkAEgAkACw92dEvfOLwPVN0xxtmuZMTw+s9Yb5hePQV47nfltPWOI1wVo/eeir0gJCQAgIgUVCAOR/df3KnyDyD+KOW/jxNn5G+M3Kjza3/vsYCAKI/kcaQIxxWz8Id1T7Z7Qf/SYC1LsAsEaAuQbCGWC37EuEHCQdwgHJeo38V3HA2pjrb0ICCHfUEChCAdIJfI6tx/3o9z5E70H+QwAIaz/OndMCrB5AcgBYP279V2oBDHzfnAGb26dE/hfp46LnMhoCEgAkAEgAGO2zo1mzj8BNTdN8ummaz/b0wFoQFZb1D8/913vCEq8J1lpmQWVZ30d63kJACOyGQCb/RvAjsk/LP4v8uRDAVAAXAygEYEvrv+2XaH/k+KP4H/P9WfE/BAGKAO4AcKJPkm9FAEnoi2uAdQGCzEd/nl8cADHHnQAuSpigUNak8yBF9rvknzb/aKc4wKr/trVaACwQmG8DKPK/2/tO7UuHgAQACQASAJbuY780TxgCwG80/X3GsdayCwCf7BFPrCUBYGk+jnqiQkAI7InADvJvdn4W+Ivc/uQIKPZ/jLP2LS/iZzn+QfZTpN/y/TNBt2h+kO6I8htxt/lu2WeaAIk6tkbgSyQ/pwCEM4B92OZHnssxbOO2tNNl4GKAR/lxrioOmJUf8+yR2/0uATkNwPbXr/746Jf/6XRz5Ijyz/Z8J6pzCRCQANAfOdgvkc7jfqtpmhvH9D6Dtfa+iNblc466/5kxXuuYINCyS46ABIB+3wAQPyQA9IupVhMCQkAINM3tf2G3+nPbv92yL9n+W8X+XAg4wzZuYf1Pef9+W78YG+uhjYQeFvu6j3oAdAdERD+INaP/WRgY1sb8frPzlzQBrlXJOYsOGpGHGBFiQ16zTfKd9FvRvyD/JgZYUcDo64gCTvzdAVDy/0X+9TETAhmBvgWA3wxbJ6ydelwbg481TXNDfkF63JcA0COYWmouEZAA0O/LJgGgXzy1mhAQAkKgTf6LxZ/5/Rbd9/x+v80fi/9F/n/pj1v+kexHGgDTAZASwH2Q7nLMcSTijP4bqU6W/IjkG2G3KD1IfbgBEgHPEX8n9ST/vpYLBU7cKSp4BN/bKCTYbf3M7l9v98e2YQKBtcV4iAUmAnC7fvWFow8r8q/PmhBICPQpAPxu0zRHwtIJW6ce18YAJP269Hr0uSsBoE80tdY8IiABoN9XTQJAv3hqNSEgBJYdgRPnn7qJt/pjnr9tU0S/FAA0UaDa/VkjIJN5K/aX8/qN7A+2qyMARJzH2IYwAEeApQfENjkAvN1dAiDrTuw5zoWAOhdE3h8UC8r8EA7MfVDOFy6A3az/Odc/bu9n61/02/5lMQD75S4BIv/L/tHS898bgb4FgFv3Pp16J4iABIAJgq1TzSQCEgD6fVkkAPSLp1YTAkJgmRE4cf7xQv6dzMdt/pjnbzUA2EYXAI9DCEjRfLfxk8jTfu+38jMSXmz+lby7Jb8eO3n3uSUan0g/I/gUAWx8WPmtL1Xzx9pFDDAHQUT5y3pRI4DHMZfRe8z1fZ9XbgnIVIB8O0Aj/J77f4/I/zJ/rPTc94eABID94TSPoyQAzOOrpmvuEwEJAH2i6QUQVQOgX0y1mhAQAsuIwLH7L9y4uvHK/8Ct/koxv6j4X6z+4QJgpL9s2b4Wtv+US28R/RAFzOqf+or1v2P3t0g92vJY7OdHKzUgBIL9rNMdk8+R+lqRfET3mVaw136nj8KBbdevvnjXgz+4RwX/lvHTpee8DwQkAOwDpDkdIgFgTl84XXZvCEgA6A1KW0gOgH7x1GpCQAgsIwK3ff6xGwr5R7QfhJ6V/Idt2ZadAbxtX6ny71Z65PmT6BcBgGODcHOMOwbaRN+IdyL+iMJjHUT3TSgIq34RB7Bmy77PqH57XR/Tbmu5BxjVJ/FPx34HgCoKgOBbPYA01ki/pQhsbp/aeO2lOx/83j1jzLFdxretnvNiISABYLFez/xsJABkNLS/jAhIAOj3VZcA0C+eWk0ICIFlQ+CD//3h61fXX/1zRP5ZlA+Rfcv7NweA5+RbtN9SANjHdlj/a+TfcvutkJ8TdVszEf6S459y/V0AQNX/av0niSexN8JvxJ4EP7aw6VMgSEUAbb7Z/HeKBST6EBd8nJ/XUgZA4rOAAPs+8v5J8u04CD/z/ltjvEig5f5jzsZrLx976LsnRf6X7ZOl53tABCQAHBCwORouAWCOXixd6lgQkADQL6wSAPrFU6sJASGwTAh88HMPX7966dUvGPkPm75H/ivJd5t/dQUUYYAEPua51d/z+32/XdnfcvtDGMgRfxBwLwgYtQGYfx/uAJJ7I+uFnHv030h5kH5zBeQc/xiLAn/mGqAYEOubewBj0hzumyhgfe3Ivkf+WTcgKvtHIUCrBxBrMfoP8n/0geePi/wv06dKz3VEBCQAjAjcHEyTADAHL5IucawISADoF14JAP3iqdWEgBBYFgSM/G8E+c8R/4jye8Q/IvudyD9FAmxrRD8q+Ecb7fzuKkhuABb+K6kBiPz7OhQJTocTwIg7iTiFgYjOVwIfJD5cACT7JP6M8oPUc30n+H5Ntm8iQXUWuBDgFn+v4u9CgAkAjPqT+MexuQTCHYDb/oH83/7gM8ebc+fGdWutZXmr6nkuBwISABb3dZYAsLivrZ7Z/hCQALA/nPY7SgLAfpHSOCEgBIQAEWiRf8vnB9H3RyX+bHNyzkKAHOfbEAAoBFh+fhDr2IdAYMQ7bgVowoD1eTui/07msWV03aP2HuF3gu8R/tg3ESCIf2uOk3YfG2uksbm9tR+ighH/EANOo6K/VfWvKQAg9hbpj/aS91+Iv1f9J/k/cuTcTxBzbYWAENgTAQkAe8Iz150SAOb65dPF94CABIAeQExLSABIYGhXCAgBIXBNBLLtf9WK+OF2fij6F9tc+T9qAHi/5/pzTon8R34/Iulu/feIPgh2+5iR/uhfr8cWnQ9HQI7YWy4+yPlBHmH9L3PoIOiuMWycCQEuIhi5RyQf44Lgcz8Tf+uLMdYP2/+Dzx8X+b/mW1EDhEBGQAJARmOx9iUALNbrqWdzcAQkABwcs71mSADYCx31CQEhIAQyAqj2f/ZSFPxLtn4QdRB7buu+pwA46Seh9+J/lsdP8o8oPgi9bT0/HwIARQFuOYfHRvwj198t+4nsx/yWIBBuASPaJPDYprGlZkBJI2ChvyDzMd7m5H0j/+FAiEg/xliF/xhXcvvTPG8Lt4HIf367aV8IHAQBCQAHQWu+xkoAmK/XS1fbPwISAPrFVAJAv3hqNSEgBBYVgWP3X7jx7MYrf4aCf8zd32trpD/SAzjOI/ohBDCnPnL63dqPPjoAXBDgsW0tDaC2W2pAyt2vufeeFsB8fm93kg3RIB/n/drHMZ3tHnPrOm7z98i+W/o9FaC9b+KApQK4aLBiBf+eUeR/UT9Ael7jRkACwLgRnt76EgCmh73OPBsISADo93WQANAvnlpNCAiBRUSgRf7N9u8Rf5J8j/wzBSCs/uEKYPQfKQKlWJ+5BWjlj4g/3QDcRrTeo/5+m73sALDof7Hck9wHmUZ7PIzU87hU7EdUP2oHsM+EhHpLwOIECFeCH3u/rx37aU2Qej6sqB+OLQ3Ar4s1ASgOcCzI/x3nnz2pgn+L+OnRc5oQAhIAJgT0FE4jAWAKoOuUM4WABIB+Xw4JAP3iqdWEgBBYNAR++U8fv2l145U/sch/kH8j/CW678SfIgBIOki/b1EbIFn/i60/RfkpBrSi++EEsLnM9fc1SxHAiPw7wa8RfyfVLgiUqDwK89kDwoCLCejLhfxsbHETuIBAh0GZwzWC9NMxwG0h9kwBsNz/KOwXVf9xfX47QBcLVjZee+nOB5+7p2lU7X/RPjt6PhNFQALAROGe6MkkAEwUbp1sBhGQANDviyIBoF88tZoQEAKLhMCJP338pl/ZuPLH2fbfsvG3yD0j/BAEqs2/jAe5NpLPiH/k/HMNRuRDJOjWBLDof54fkXlG+LG2E35G4dOxVeb3Y6stYJH61I9jjikiQKe/rM92buv5eJs/y+sPe79X/vcxdADYbf5wzo3XXjx6/nunRf4X6VOj5zIlBCQATAn4CZxWAsAEQNYpZhoBCQD9vjwSAPrFU6sJASGwKAjc/hffvHnVyf9rHt1Ptn9G+bs2/7gbgI232wK6EACS7gQ+Cvul6L21mzjgfa2xIQ5YG4SB9DBLvhH31E7yzi3H8zhti/0eKQAcZ8IABYpO8b80l6ID1yhb2P1zxf9Yz9IAzBXAlACQ/6svHnvo+2eaI0d0q79F+dDoeUwTAQkA00R/vOeWADBefLX67CMgAaDf10gCQL94ajUhIAQWAQEj/5de+aPV9a0g/6jmH1b/ZO/PbbjVnx1jHIh7ywUQ+fatCD7FgcjvZ0Q/5tJ+zyKALfIfxN+ItxF42vkj9x+EPtpLvj7JeNnWHH4fm+aWMRAHaspAWauVClAt/azyX7ew/29uW+Q/0gHsmjeuvnDsEZH/Rfis6DnMDAISAGbmpej9QiQA9A6pFpwzBCQA9PuCSQDoF0+tJgSEwLwjUMj/xtZrIPIo3mcF/GKfln621WMQer/tH9tq5X70wfKfty4AtNu7Y3iMqDxIvtvud+TuRwTfI/EYU235nhbAtmFbb/M1nfDXdShccL3u1uc6wR8kog/S78LAMPJ/18PfP6vI/7x/UnT9M4aABIAZe0F6vBwJAD2CqaXmEgEJAP2+bBIA+sVTqwkBITDPCOwk/7T9e15/qehvVn+IA+1+i/rDKm+E3Mm72fetLVX9NxeBk2uIAjYmIu1ljfWYH/10BGCsP1JFfiP8Hqkv/czZD4t/q8hfcgdgPCP7xWXAfp7bxoQTgONt/SoIgOjT6g8BAfUAEP3Pbac3rr4g8j/PnxBd+wwjIAFghl+cQ16aBIBDAqjpc4+ABIB+X0IJAP3iqdWEgBCYVwQy+QcJLxH+2HfyXyP8rPRvUX3a/Y0we6Teb7MXEXQr8BcE3Yi+7yP6T7HAtp1x3s/1GJ3P1n1E4NsPI/RoCyGCxN+3QeKtnwKCXwP7uaXbwIsDUnRI11BIvlf5Z2V/I/6lAKA7BMxRIPI/rx8NXfd8ICABYD5ep1GuUgLAKKhpziIhIAGg31dTAkC/eGo1ISAE5hGBTP4Z1a82frfql8r+UZjPc/5rrj8j9JznhJ6W/yDxMRcCAyP1lgLAY0sTSE4BCAqFrIOwk/wzXz/aTATwNbN93yL7EcU3Yh8uAx/j0fsiGMQa6Gu3ucDgbYz4O7E3mz+t/phvef6I/kcKAIoCwgWwcfWFj3z5Bx+V7X8ePx265jlBQALAnLxQI1ymBIARQNOUhUJAAkC/L6cEgH7x1GpCQAjMGwK41d8qCv4h5x/WfivmB+Je91vt6OeYKAjYdgE4ga+5/VUkoL2fpJ9iQZ2fyX8i+yTnZs2nZT/IdWozkl4s+hQJMM4JeyH2Q8fkdSNyn9Z2MSHag/SbvT/IvhF9EwCYCsA1rr5w16M/VM7/vH0wdL3zhoAEgHl7xfZ/vRIA9o+VRi4mAhIA+n1dJQD0i6dWEwJCYJ4Q+GWSf1T7Dxu/CQC270R/mCCQCTsi9BbRZ4G/EAXYznWREuDjsPV9rAOnQJ4Pkm6PiP57igDrClTngI+LtALOMcLOVAMXCArpT5F9uhNargC4C8IhwDl+DhcQzIkQtQay3f80cv+Z60+hwsZBUFDkf54+D7rWuUZAAsBcv3x7XrwEgD3hUecSICABoN8XWQJAv3hqNSEgBOYFgWP3X7jRIv9xqz+Q8WLzR95/EQTqvpH5RLZBikmSh2/36q+5/SYCBEHP69COjzaS87oFwaZLwMl7jtL7nCoY+Dwfz/XqWpX8ow3rljHxfK2dRB/W/hTtL6kAtPxj3PrVF2X7n5dPg65zARCQALAAL+IuT0ECwC7AqHlpEJAA0O9LLQGgXzy1mhAQAvOAwLH/08j/H6+uw/YfOf7Z8h+386vR/7aNH+SYkXtG8dGWbf9lTHEIOKn28SEMlCKAEeEn0Wf0P86Tibqty3HcUjyI9fJ427eIfCX12QGA9TiG14x+ruH7OI6K/tbnef5os0r/pc3dACsbV19Utf95+CToGhcIAQkAC/Ridp6KBIAOIDpcOgQkAPT7kksA6BfPSa52XdM0P9E0zb9qmgb/G/Ba3tg0zVuGPPC5Qf8bYzzmYC7W0N/iIoDXmO8RvObDHhyzuCh0n9ltn3/shtVLrzj5B+lH5D/IfyH8YeNnxN8s+mxjIb+w7oPQ2yP3c5/bbPPvtjHCTiIepN+JeacgX4wlaS8k3ebWsaUf7fEgucdx2Q/iTkHA5/kc2+f8TP4Z/SfpZ9Q/tisbV1+66+HvKue/+8bTsRAYLwISAMaL7zRXlwAwTfR17llAQAJAv6+CBIB+8RzHaiT6IO9vbZrm3U3THGma5mjTNPc2TfPrTdN8pmma32ya5reapvn3Qx5oRz8en26a5uNN05xumubDTdPc2jTNO5qmeXMICRIGxvEqjn9NvE9A8N/UNM274j1yV7xHPtU0zW8MeXyyaZqPNk2DcT8X7y0ISPitsZji0Ac/9/D1qxuv/Mnq+tbrRvoj0g8CX277R0KftiDIHrkPsm8R+py779F/H+e31aMbwGoBRKpAbavrGfkGmc5kO9ZHn0XeO8ecw/7uMefUlAC/Jo5Df96HkFDmpHPmNqvsj74QANDXasOaG1dfOvbQ82dU7X/8n3idQQh0EJAA0AFkgQ4lACzQi6mnMhICEgBGgm3XSRIAdoVmqh0gX3htQMx/sWma+4Lkg9x/Nj3+Q9M0oz64zu/FGlgb4gBEhZ9vmubtTdPcsLBEcKovb28n5/vknU3T3NE0DYj+b6f3B17j/bw/+F7Alu+DkyEIwFWyGGLAkT+4/42rj19x8t/J8W9F8Bkht22y6uMYJJf93Oc28uZLP47Rx/5d6gUYGQf5j/6af8+Ifmdref/M/e/07ViDtv8YF9dOF0A5Z1xjaee4EAZQ9K+Q/RAIeIz8f3sOG6+9fOxLz4j89/b51kJC4EAISAA4EFxzNVgCwFy9XLrYMSAgAaBfUCUA9IvnYVcD2bqlaZqzEa0HedsvidsP0dvvGJ4TzgEIAu8Lh8Bhn5/m94MAXBo/HS4QuD9I4Pf7+u5nHNeEawRiABwo8/t35Nz9bzz7xCt/hsg/o/1u/UckHtX+IyIfxBdV+kHkPWLPYn1oi+r9nb4iICDfHyTcHr5ma+2SCkBiXrceha9F+syCbwS8FuhzQSGOjYj7/Co60DHg4kMVF6rAQFHCyH9ag2KAr0WBAcTfH1btnxX/7dZ/tW9l/bXLR7/4zGlF/uf3M6Irn3sEJADM/Uu46xOYdwEAP1p+KqJaiC4d9oH3OjBZxj/YNBEdPCyGmI91QDzG8QdbcV/XiWv92YiE7ucH7H7G4MctCFcfOO5nDWCBH+6jRtRgAe8TTzx3WIP3g9V+xiCCDPvxfrDoYwywgOV5nv/wHYYILkg/CDeJ137wntQYXBMiA/sHBgAAIABJREFUwx+Lz+B8k8Frv1sYWcf34mEffbooYPHHewWvw+9OUBzCa4/vnvn8++Vzf/gGkv+a7x9F/YL4l1z/Yvt3El+IPcZl8s/jiLgXkh8CAOaZgBBCAfchIGQC7hb9GsU3ESDl7LPfIvPhJihCgZ0jCQhMIejcGQDnhhBgdwyIiL61cbz11WvA9eVzeLV/WP8H1f4fdwA4dXGwvXLptct3PvD0PUeOnMOPPP0JASEwHQQkAEwH90mcdd4FgDdE7ul/apoGttPDPn4nil1NAvtZOgd+nCJ/ty8c/yAifON4jsd7vE6+X/omPVx3Elu8ZiDc+CyM8geS2Nfrzuc773gij31UQWWU16CvOSCGyOXvU4Dp+7Ucth7EAAhnsJxDiFzEPxBtfMdCkDnsA3n2cC4d5g+8CmIXif+w12WcbRAA5vO1zuTfyHwh+BGdN8LukX4j6Tv63cLvBJ/k3aP8vp47AkjqjfjnNeAoyHcBGJZrXwh6it5bW43CG4E3Ys4xlbB7X+Twcx6JfsxxUl/nVoJPpwCFhDwmcvwj5x9OAJwLpB8PCAMg/0e/+NRpkf/DfL41Vwj0goAEgF5gnMlFFkEAwA+Yvn6ozO+PksO9vUB2YMnED/E+sAQRhMV3HH8oVNbXdfbxXGdhDRRtG1UAOCM8W+95vLc+NGcCACLKyOundXsW3pOjXAOwx3cwvotADudRhNntOw8CAIrjjYJLdw5e58MIAMAWn3tE/LtrT+p4Pv/XMuf/zPrm6znCDzKMY5J2EH8j/9FmxD45A2ycRfzTnCD5eS7P4UX/qnBgYyJ6z7XQRlJv+zhObejj2pxj/XGtNrc7h8dDnltrLa7Na0rzeE3YIse/HKfCf2xz8v/M6SPnFPnf7ZtE7UJggghIAJgg2BM+lQSA9g+g+fxRcvg3jQSA9vtgUj+C+zqPBID+Xr95EgBgm0fEH2kSfb2XZmUdFJ5DJfmbD//1NhMrzIIAAJEQxRjhQJj26zx//2ut2v+lV/7YyL+RdY9weyQ/cvuD1HvOPlMCIrqf+ygQxDomHphAgLHJSYAUgSDXVjsg5pHsk4Rnm7+Tfs/pN2IN+36kFYD4532rK5DXjGKAXNfOU0SEnY4AjnMCX2sH2Dniuu3akkvBIv24DroAupF/kf+Z+MbSRQiBpmkkACzu20ACQPuH0Pz9KOnnvSkBoP0+mPaP44OeXwJAf6/fPAgAtG/j1nvTjOIe9H06ynikBkDkGNXh0s835OFXmbYAgKh/n265UV7LPGe+/tfe9vnHbli99MofgfxX+z0i6kHQc4G+RLZNCIgc/ULgw75vx8z3B+k3Is46AUwDcDu9FRAsUfYg90bMSfTTNhH+Sr7Z79fsBJ0Wfe8zsh/XUwk9+lw0yGv5WNYAYD+j+0wzYDur/ftaO2z/9rxk+z/8d4xWEAK9IyABoHdIZ2ZBCQBt4jBfP0r6extJAGi/D/IP1XnYlwDQ3+s36wIArN+IjOO7ah7em31cI0QOkNfDFLvs79tytJWmJQDgux2FTiGk9PFa9LXG/PyvNfL/+Ct/tLK++VqN1EeUnlF9i97XNABzBaS2fIwofD4uEf9Yy/rpAmB0HiSZEfWw1w89BllP/e4A8DaL1huZT6kAJbpf25zwt4/tXPn8nevh2lUYoBgQkX5G/OP8Fv3ntWy89vKdDzx99siRIyr4N9qXi2YJgXEhIAFgXMhOf10JAO0fRfPzo6Tf944EgPb7oK8fuZNaRwJAf6/frAoAjPrjtZ7U+2rWzoO0ANQ6mEc3wDQEAPx/R0HLWXSJzMf/2mP3X7jxzOOvfB7kn4TbI/ck+zkNoFrgrTJ/Ie9s5xZk3iP9TpxTe9wVoPQb6a79Hrl3cm77cY68b2sWYu9z2/OqIACyn0n7jn2KCVzPtuEKiH2bM2TfhATY/GH/z9uo9m/n3rj60p0PPivy3+8POq0mBPpCQAJAX0jO3joSANo/pufjR0n/7yMJAO33wawRn2tdjwSA/l6/WRQAQHh/qWkaEOBrvReWof/eOawgP2kBAPUhUOhvVt8Ps/+/9pf/9PGbVi+98t8s8s+ovUXmI0+fEf4g0VUgYIS/Mw5knWM5l1tG/OM8eZwR6RYBD1LdbeMxIuuxDyGhS/LRh/W5LaSf15bnY5183RjTXbM7HsdW8C+s/yD8UQCQW5L/ow8991FF/vv/RacVhUBPCEgA6AnIGVxGAkD7B9Ls/ygZz5tIAkD7fTCrP5p3uy4JAP29frMmAKAI3rQrtu/2vptmO251iPvX47trHv4mKQBc3+MdB8b1Gs/2/9pC/jdq5N9I+RCCnsl6d99z9yEEIBIfkfzYtza2F0cAnQHIowd5jy334xik/ZoPEvrdxhqZj3VG2ee66TwmVkAAaBX481v88TZ/LkhsvSjyPw/fW7rGJUdAAsDivgEkALSJw2z/KBnf+1ACQPt9MK4fveNaVwJAf6/fLAkAP9U0DQr9jet9M+/rwhGBAoEg17P+NykBAJH/vm43OM73x+z+r22Rf0a/jahX0u2EnmkAtd1IeRBi1gtAm+X8o/hfKgBoNv+8fpzDo/ck/762CwGdyH6K+FMMMKt/rMl9J9zhGmC03uZGsT7um7hQz4c1/Vqq44DnKdce12BjS+TfHQA4b77tH6v/r6xvvXjske/dq8j/rH9n6fqEgO4CsMDvAQkA7R/Xs/ujZLxvQgkA7ffBOH/4jmNtCQD9vX6zIADg8wjhHVHucbxfFmnN34k8d/wvm+W/SQgAwODknLxnZvN/Lcj/Gdj+LfLPivw1Z99uyRfRei/eFzZ/kvtIEQBBLhF+i67HWmb59znuKKg5+oXkm8Ue4514O7mugoCNC7Lu+yT3da08h+vsa2yIAXArlPPEdeA4r8V9bm088/svwv7vDxcCsB7EBZH/Wf6W0rUJgQ4CcgB0AFmgQwkA7R/Ys/mjZPxvOAkA7ffBvBEkCQD9vX7TFgDwWXz3DFZtn+XPBIrc4c4IsywCjFsAQJHIX5jRgn/D3juz978W5H9l4/J/Bfn3SH2K2DOKn7cWze8IALl/yH6JoFuUniQ7EX20x8Ny77kfokBxBzCdYJfxXMOEgCFjc3/eB0lvpR50nA/tsUxTCAHiopN8WyPcAHl/ZX3zhbu+/P37FPkf/y86nUEI9ISABICegJzBZSQAtInD7P0omcybRgJA+30w7AfrLLdJAOjv9ZumAEDyr2J/o72eEAFmNR1g3AIA6iHADTHL31P52mbrf20m/4hou2W/U7QPZDsi/Lx1XyHEFuV38s655hYgQQ/XgI03Mp/W5nGsb5HySCPwgntRO6D012MSbF7HzuM8llF42vxB3OM6EmHHc8R63bX82oPsp/EYd8oi/zEn9s3+b9X/bT2R/8n8mNNZhECfCEgA6BPN2VpLAkD7B9Ns/SiZ3HtFAkD7fZB/qM7DvgSA/l6/aQoAiPyL/B/utYQIMIu3Ex+nAHBj0zSfmiPyj+/U2flfazn/Efk38htW90LyE0ku1n4j427r9zlOmkme8zpsM0JdiHXk32eyXfpIvmtEHWuQkLet+U7gW2vHOk7is8ug5vRXgs+0gdrn6/v5eF5uee68tlX2D6IPIQAFAH1LwWHrRUX+J/drTmcSAj0iIAGgRzBnbCkJAO0fm7Pzo2SybxQJAO33wTyQ/nyNEgD6e/2mJQC8bUbIP54/Hnh/wVqPqPJuD95fnnM4L783J72Pa/rFGbw7wLgEAIgdR+eM/OM9MRv/a4/df+HG1UT+jfTDum+R/lrkrxybOyBSAyzPv7oFMIZRciP9hbRHFD4JCSDsHGv7qc/mksTndmurokNZI5wB+Zy+tlv0Sd6tDWOHjDcBIa631Z/GljGpPkAp8hcCgFX/L88b53Ly//Zjx2bVmjPZn1o6mxCYLwQkAMzX63WQq5UA0CYOs/Gj5CCvYD9jJQC03weTJi2HPZ8EgP5eP5DYD02YQL61aZrPTInE4fmCNOO77xNN05yO539r3GYPdyLA9XUfPx39GPdLTdMcb5rmY/E8aEWfliCA5/Pefr4ae1tlXAIAXge8dof9Dpn0/On/r83k32z7RvwHtWI/c/gt1z+IfncMc+QLoY+oPch6kG0jzkHoSw4/i/iVMYzUD6nMHykCnAuCbvtprrWBeJc2RvS767EdEf5O9J8CQ2x5jjKOzyGuJxf5ozjgbeEeMPL/vHL+e/sO0UJCYOIISACYOOQTO6EEgPYPp+n/KJnYS986kQSA9vtg0j+GD3s+CQD9vX6TFgBuapoGr99h3wMHmU9ijrsMgLiDLL+paRrcQu4w9nn8P7mhaRqIBj/XNM3ZVMyQ5zzIdR5mLL7LcR2z8jcOAQBrnpnAewev3X5ev/2Ow+s63f+1t33+sRtWU7V/FwAiuo6ieYX0132QbIvyk+wb2eacINQW/Y42I8pO7LEeK+tbhJ1zsTXiXqP13h/zSMpjvhH9uL5cHwCF++q6EeUvYkAQfRsT48xZUEWHfE4WAWydq5B/J/c10j/Yttv7sfo/o/8bWy/d9WWR/1n59tF1CIEREZAAMCJwczBNAkD7h/d0f5RM7w0zTwIAcnx/L36Q8gfnYbeHIRq7zT3sNR1kfh8CwEHOt9fY3fA4bPte5+yzD++tSTkA8P076Xu24zsOUX4UjQNZx2d/XH8QE25umuZ9TdPcN4UidRA4rh/XkzvguuMQACBw4PU87Gdrt/lwUnw6XjvcXhCpFT8bghFEIz7eH30Qk/B+/mQnnQWfz+45pve/1sj/E6/8t5X1zdeMmJuV3yP/hUQX630mzLlgXpDqMs4FgJwjX9ZiRL2IA3Udt+dTJIgIfozjWoiuZxt/bffoPvr4YJ+du8zrEP3SvvOaWw4CXm8m/7T605WAMZH37+fe3D69cfWlY488d++RI+cOoyYe8POl4UJACIwBAQkAYwB1RpaUAND+YTK9HyXTfUPMkwBwJKzGIBR9PH6tZ2IC+/PHe7q2/T6/w9wCDT/q93ue/YzDc+/+2D/MMT6TsJbv59x9jMG5QFjH/YffxhAaDoPNfueCgKG4IHLF3zxm0r8bbiDAIKz3jJm0ZkzwvHG+cYocuz3fbnvfAgCEFRDu/HwPuw+8QPrxGUZaB14viEQH4XHA+g0h/OC3I9bBZ6pb3HI6/2s/+LmHr18N8l+q9UcUvpDmiJy7OBDkOkXTSZJJyt3+HkIBI/ZlfM25p02+nAdEPJFra09iAY+5BcEu4zsR/0L8Y80yp1wHRQCP4JtgEOfmmjYnzS+E3oQAn2fRfpL+tGX7ysbVl489KPLf/fTrWAjMKQISAOb0hdvHZUsAaP+Ams6Pkn28UGMeMk8CAK61zwd+SCNSeNgfz5z/W03TvKXna9zP8x31LbKftQ8yBjnJzAEnJofZIpoIa/pBrqGPsaPiud95k7xtGyL+IP6z8IfXBu8RiDWHeV/sdy5I7SzUA+hTAPjNeE591Y0ARvjfB0EBrw1+F/T5h+eOFBM4BSC4suYEvicn93fk3P1vPPv4K58vkX+QY5DqQqwZic9bj5I72a/tZR7nl20d78Sac5xAt0h8SRFoR/A5r31OX7cQ/SD2vHa/nng+UaTP+3D+uCZ7vnUdnqdeE6/Vt1UAqGvw/Du3m9tO/p9R5H9yb2mdSQiMGwEJAONGeHrrSwBo/wiVANDGY78/srvjYKOeRBS1j08OcrD7FgBmhWz1gc9B10DUsG8BABHFRfqD6ARrdfdz0/cxzgGhAaR71v7wvweEsBsZ7hsDrIdz4FZ50/zrUwAgge4DK3xWQfwpWo4bI+CAO17gnJP7nnzPuT98w5knjPy/bpb6EhlnUbwolpfJMqPxsbUIOdtsXHUHGCGOiDodAszL92J6lURb9D3OY30QAjCXa8c6rXEYD2JfrjvcAOmc5XnFtbWIf3ftss7O81biD3v/IG7r51u/xR/bwv5vroGrl4996SmR/3F/fLS+EJgsAhIAJov3JM8mAaD9I1wCQBuPUX9gSgCY5Kd4ts4lAWDv1wMECBH5UT9b+5mHiC6Kw81K/vteiIAEwnKOa97Pcxt1DPA4iJV9r2sepa9PAWBUDPI84A1rPj6v0xKIJnPe99x77g2rj7/yRyvrm6+T3Hp0vUbGnYBnIl4j5W1ijTHJil/cA+3xNoYR/kK2qwhQyH6Q/youpGuy+SToTBfgGiEIFLIf1860giIM1HYTEGLNPZ9/rAlbP6r6G+nPbRAF1ja3cQtAjFm59NqrR7/41EeV8z/K94LmCIGZRkACwEy/PIe6OAkA7R+dEgDaeOQfjAfZlwBwqI/lXE+WALD3y3dLWKAP8nk6yFhEh39+ymR3bwR29sLhgToW4xYB4IaY1t8sCQCI+uM9gv//i/135Ny5n1x94pU/NvIPUhwPEm63wTuZZhuj7BaBT+MhHsBW75H1TqX9LsmP42utmfvzte12Dl4bx/q4uKZ0rfa8cGzE3UWLMqd7bRjTEjVqZL8U+EOV/zWv+H/KKv77mJVLV1+984F/PCvyv9ifIz27pUVAAsDivvQSANqEVwJAG4+DEI88VgLA4n5nXOuZSQDYHaG+003yZw77IHYQGObxD9Fg3DoQAkb3efV1/KkoUDcNfGZFAEC6Eyz4k4m+TwNpnhO2/9W/i8g/yXAiyRYRz+2MjucxRo5dOGiT6hATigOgkuw8ziPtOQqfIvxxHiPmEWEvhB3XYtcW267AwOtKggTG+7l9jgkYti7XimvujLNz8ly8jiD5iPK77d/FBJJ/bAv5Pzcf1f5P/N/PvXPl7y/fNXOPJy7ftTLC454nLt81M49vXb7rzvNPgSzqb7EQkACwWK9nfjYSANo/NiUAtPEY9Ye3BID8KVuufQkAw19v2M9vGyO5RfHJdww/9dy0gpSiYF+fNSTydxgcBriLyDTI77QFADx3FOBD/YnF/0PBv5zzz+g3yTmj+zjOD5LoMi6T9CFjQZ7zWO7n8+X1u/scl89bxgxZu7v+0Hnd66RYUIh/rV1g65H0m6U/XAPldn+0+sPuT0eBFfzzyP+ckP/jX/n2kZUnBt87tbb5Gh739PC4e23ztUM/Lm6+dvcIj5MXN187zOPExc3X+nqcXNt67fjXL//N//I7f4wKovpbLAQkACzW65mfjQSANuGVANDGI/94Psi+BID8KVuufQkAw19v4DKugndY9+3DTzt3rSDnuNc8vosP8p2z37GooI9b2036b5oCAMj/R+ekJsThX5cjf3D/G+NWf6/nKHgh/SDWJXJeLf0efY8IfZBvzvHaAUgBCMGgkOZos/QAn1vqDETRPubeF2KfCHpZl+Tc1uUtBeu2XFsRJHDd6OeYKmTk8+/7+YPcB8G3vP/y/Jz00/5vgsfGVc/5nxvy/y0j//cghWFtc/seewy2717b3L57bbB9z8XN7bv5iDbv87Ecd/fFgY3DfBu/trl9cq2ug3E4PnlxsH0y1sHW2sq4ze2TF9PjwmD7JB5x/pMXNu0Y69s61o4xaE/zLg62T9g8n8s1T1zctPYTNhZjNrfRxnNgnI25ONg+fmFz+/iFQRyzfZc2G98eezzWOv71y4/d+nsP4h+c/hYPAQkAi/ea8hlJAGj/yJQA0MZjvz+qu+MkAPATtnxbCQA7X3N8z46r8B++s2D7n0ZUe+cz7acFzwWR+nGkA4AM/8IU8JqWALBc5P+Dn3v4+pW/u/xf7VZ/xdZOku9k2YhzEG0n1kGmTRQYMibW8Wi5jy3zOn0g3CT1dVtFhZprX89jLoBE/O36yrWnuby+HeeIMelaKDbsuIbOungeVuyPBf9wDrP/O2bos+MQTFbWr16ep4J/x79Syf89FwdO/rENYu1kHsQeRN4f7DPiH6S/CgUc6wTdiHqQexD2lghgQoCLBtaHc5pAUMk9iDnFB+7vtSWRB/nnw0h9iAjsL4JAjMtjbN7FRPQvQAyoDwgEFAZa2xAM2GbjRP77+Zc3u6v0LQDMy+3BZvcV6e/KJAC0Ca8EgDYeXWK/32MJAP19RudtJQkAO18xROfHEdEGQZ6WpX3ns+y3BSLAHWMSAT4zhdsCTksAuK9pmjf2+9LM6Gq3ff6xG1Yez+S/Wt13WOWNRHfs+8PajDD7OlzDCDsi9nQDpIi+EW9zGHTy7dmWiX6sYVH17hpxTDHAxIc8Ps7NayLhL+PSdec224/nyYi/iwCR6x992e7vYofZ/l++8/x37puXgn+0/YP4W+T/IqP/7Yi/OQLQl/pb+4z4G4EHifcHSDX3ufXIf3t96zPBgfMoCqRx7O9sixgQ7YXYJxeBRfjT8bAx1hZuAHcA1Ij/yMdfv/y3ivzP6Jdhf5fVtwCAPEikiuhRMZjWPYolALQJrwSANh77JfzdcRIA+vv+nbeVJAC0XzF8x54dk50dlfNBLBf1D8QVBLb7/XLYY0TF3z9h0KYhAKDo4bR+W0wWXpD/1UuX/5CR/0p03aJfSGwh1lHYLxFzEnoj+EGwuY5H9mvhPxLvsm4m5CTYQcIxpj0/zk3SH+PLuTAvX2fMz2vY2Ezy0znRx7VMQGBf2rKYn11/p+CfR/zhKqh5/yvrW/ND/s+duy7I//NG/jvEnhF323bJPQk4UwVibp5TLf4k9CEEkKSb7d/JvaUApDXLcbLzt9a+EPMwJ2z/2GIMSXwh+CD0XCfvx1iz/4czwPeD9FskH1H+XY7NAVD7LNIf69M9cMLI/xdk+5/s19w0ztanAIB/3Iha4IFCP3r4j5ufn8YLG7cBwg8s/CA67I8qzJ90ZAW3j8K9jPu4dqwhAaAfLCUATOkDPQOnlQDQfhHGFf3/+JRy2dvPbvxHb43/K319x3OdT074jgCTFgBQFwLYLf7f/3b/hRtJ/o28I/c+7PIk8zkP32z4qXp/IdMkzoW4R2pAaXdbfGtt3j7PSDtt/U6ebRzn4no4Nq6N53WyXs9l5L9cf6xp9QR4R4D2WH/OIU7EdbSu0Yi/z0EknJZ/I/g4DwWAqANgY2KcCQTrWy8dffDZj81F5L+S/2dL5B9k3qz81foPy7/Z/zs1AMz+HxF+z/nnHJBwz+1nnr+T8ojmsx4AibptWQug1gbgnB2RfRB12vgxtxzH+tbn+f4g4awPwOg/Cb6LBMjVj/UKyfc2J/N1n4Te6wE46a/7nhZAh0Cx/n/9lb+99XdE/hf/m9WeYd8CAP8Ba+tkizmJ03g7yQHQJrwSANp4jPoZlQAwjU/zbJxTAkB9HUD6zvQoUPLziIr/yxJ8YT2AcdwZYJKFEycpACDAshyplsdI/jc2XyMRBqHOD7bnbaufYsA+5mGNPBf7ed299rvzeMw1OZft3S37r7XN84zAp8j/sGMW/QPx39E/Z+T/xN8883MrTwwK+c/Wf9r0zfLPCL+RfYoBteifiwNxzAg+iDnt/xQJGO0f1o556Oe8WAfHJaI/ZB99fHTH2lomLkSEPvYP0k5Czy2JfXEElEKB9RwUCk6A/P+eyH/9H7/wexIA+iFF/PHW3UoAGP0jJAfA6NjlmfiRfbJHJ4gEgIzucu1LAKiv979umgZkvfudf9jjaRSxq89q8nt9f88T/3uapsHtGSfxN0kBAAUnJ/W8JoHd8HOA/J95/PJ/WdnY3HLiSrt/ROrDCWCEmFF3kFyL8EdEPqLjJM2InJvVvjU3iuwloYCOgjK+lTLg0Xaep33+5BKgeBDrYhxdA7vN9ch+fQ68C8DQ508XgUX2kQcfuJTovh9b+7A7AKxvvXTs4ed+7e3HzuHNO9t/585dF+T/6Wr7B7H3CL45ALBP4m4OgFrBnzn/XggQxB+Rd/aDyHvU3Qi9rRFReBYARBvJOMbaIwoFhjvACwF6FL9N7D3K7/Mj4m9rcZ/ugBrVd8LfdgJY1N/IO8/BeSDyUTSQlfut+r9X9T+OPraX/RT99zsFvA7yf+Q/PqBb/c32J6Hvq5MA0P8POP4AwVYCwOjv2L5/GMoB0M97XQLA6O/peZ8pAcBfQYhqqHeTv+v72If1//p5f5OMcP3vGMNtFHFLwJtHuJZRpkxKAJh0Gt4oWBx+Tpv8B+EGwc23xSsRbSe6RrDRTyKfyL8T67DYB1GuhDyRdpJ1I/zJnm/nDgLPdaPNz1sLDppoENfh+5zn57frK9cY19QSC/z5gvxTKCjXH9cOQYB5/m75jyJ/KIiHyv6lnykA0R5CwOn1wYvzSv5J5s3Ob8X9nEj7MfZDCLBIOy3+0R5tIOMmFkTqAMm9pwV4VL/u+9xM4NFnhD8JA+j3vP4YHzZ/y/Eftm/jQeL9fMzpL2TeiXm5G4BF6dmWo/hoi1QARPuN8Jc6ACECxF0AIATYmDT+xMXN1z8i8n/4L635XEECQP8/4vIPQQkAo38uJACMjl2eKQdAf59xRHzfnMFdsn0JAP6C39Q0DYqw5e/6w+7DBg8ivIx/INB9F1PE/95JWeUnIQAsh/XfyP8lj/yDXHcfRopJmIf0F2JvZJnkvm4xnyJBd22bm9a2sbucA04Cmx9bjt3PNo/J+7Ym103ndQcAhAQn+lbhn2S+CCHe78KAE/4qBrgoYPNB/r/83fmK/D8+eKpE/o3016r+iNoz8u+k3vP5ncBTDEjbljAQNn46B2j5tzEUAnybo/pG9hHFjxSAKiCEUyBI/Y72WJft2drf2mfxP7oO9tgyut/eRh0ACgbdbXUMGPn/wGcfetsy/tfRc24kAPT7I677I1ACwOgfMgkAo2OXZ0oA6O8zLgHAi7t2v+dGPZ50sbb8uTjM/s/2fAs7/J9APYHZd+MeBrW950L8gEtr1PfSsHkfnZBdfhICAAriLv774+w3B5+G7Z/kGqR1N2Jsdv6Iiht5R2Q9CHGenwl0aw6j+WbP90i9r+M2/LJWXAOvxSPyQciTa8Ai/un8PK9dSzmHnyevhfPk67K+1vg4V5f0W4G/Su6ZBmC3+cNY9GeBYJ7JvxX7c7IPot/VJ7NgAAAgAElEQVQi+4XAh60/EW3WBijbEACMxNO+H8TfbfxB7EtbFQCM8Oc5tPKTsFukH0X+Yg623MdYHqdxzL9HH/cR0TdBwNp8n1H+LBQY6S/k3qP73pbz+3fuR10As/1/4D+L/O/9f2mheyUA9PuDo/sjRALA6B8fCQCjY5dnSgDo7zMuAUACAPKvQSy73/WHOQbxXZbCf/m7Ke+jaG2fd33B6zGpNIBxCwBwh0yyqGF+XSa7/ytPXn3vmUub36wk2y3xlpdvpJjHlYDv6CtW+TSWef/oK+S6kmdLL8hkORwERup3nNdTDSrhx5q+VhEQKEyEyODPJ64n1nbiz+tJLoV0HSD1pbJ/EP4a2Y+q/1jPyD62OQ0g1QaYZ/IPW789UnQ/7PcW6becfs/lZ+TfCL/l+cOSH3059z+EABDq0h+Rdo/Qh83f0gRAwj333/qiDoCfK/pA6mMtJ+8DSwmw8ZECYHcHSPtO5pkG4PMhAhShwEQDv45yFwGz/Edev1n9az4/UwCC4Lvd/yL6af0vYz3n//fPgwDqb3kRkADQ7w+57o9ACQCjf7YkAIyOXZ4pAaC/z7gEAAkAbwli2f2uH/UY/yNgf1/86G7+Vhq+f+sYnBXvHn6qXlvHLQBAcML3+HL8nf3W1VtWLm1+y8h0kHXmxLPNjkGUefu9sMxb1J37aduy2mPNTNjLuDaJ57kKeS/jUs4/2uw60NYh8+naWuenKJD6XThIgoSRfeb2Ywti3z72VAAn/0wL4BgeOx6LYPt3Im81ACL33/dZCNDTAkC465idbej3RyXsua3uc1wQ/BAChvXXNpL3EB12mUOBwMh+iA5FDGgd1+i/CRDR53Z/Fvfj1iP9+6j2H+T/UZH/5fg63etZSgDojxwM+wEoAWCvd9/efRIA9sZnv70SAPr7jEsAkADw/p5JKnK79VvMv81QtO/TPbsr7poAeR6nALCctSHu/Yer76YIQHs8SbJv3QHQbqtRdEbXOTdH6zkfW9YDsP7kDPC+IPoltYApBr61c2QBIIh9viYv+lct/sP6XGCoqQEg7cXOb2vmYxcJYO2nvb+OZV8SEtY356/aP3P+O7fzcxt/qvafrP9eB4B9rPCfj2sb1tlh52dl/2zxL+MQ/cec2FoRQCfnTtxdLGiTeBcYMnEv++EWYGX/HN3nei1xINIDcpqAR/WD9Ed1f1b8H7bNtv8jvy/yv99fzws+TgJAf+RAAkC/HxYJAP3gKQGgv8+4BIDlFgBg/7+3Z4L6a03T4LtOfx7lxu37hv0vHbVtEnUmxikA4PqRHrF8fxABzjy++aST5iDIxY5fo/jVBRBWfEb4Y+uR+eF9Jboflv1MxknWLYpO234+f5pTrtH6/VrrfBByf9S2TPjD5g+yH5H+YvO3FAAn+9ZmdQDcDWCpATHHUgBo/2etgDm71d/xx54+shLk3yz/JgDQwg+SHVX9afk3i7+3exQeY7vRdxD/9LAouo8BobfxsS0kn2NA+mM928Z5jchbPn874g+C7ncCwDbOkS3/QfxB+EvVf6vIH7fxYx2ALuG346gRkMdYMb92uxH9PKamDLx+4huv/K3I//J9j+7xjCUA9Ptjo/sjRQ6APd581+iSAHANgPbZLQGgv8+4BIDlFgDe1DQNbsXW/Z4f9Rj/H2B7119F4JaeHRaTuP3rOAWAIxWaJdz71SevvuvMpc1vOwkHaeaD0X6PrnukP5Nqjtt7C0LubgEft5PIt+fnsfVaYm4pWNiKwHvNARMjMC71GXn3uYzm25ph9S82/u5xIv1lTOBC4eD0+tbL83Srv+Nf+XYh/0hjoI0fxJ77ZWv5/7zFX/SXwoCs+F/nVYt+tfXTBTCsD0KA1xBI48N+P3Q8iH9JLciCRLu97RBoOwhY+A/2froAsM3Hbv2Pon4UEfItAeM2fzvGXdx8/fg3Xv3aEeX8L+E36J5PWQJAfz/mhv0IlACw59tvz04JAHvCs+9OCQD9fcYlACy3APCunskp3k+Tulf9vr8wpjwQIguK9w37fzpKG/4Hj7sOwLgEgGX/vvG34kf/ceudZy5tPmVkHYQ9HiXyD1JNgh0RehJ520aft4VwUNagzT+2JY+fx3FHAFu3juX5uKYdQwDI1xfHjP5nwYC5+iT+9dgFAjuOVABG/jmWpN+s/1EYEGuX/vWty8fOPzc3t/q762++8/6VJwZPe9TfCbyRfSPiEaUHwWZKQIgCFtk34k17fxBui/j7vqcGBKFnRJ8EP2+DwLsrgOukW/1hLEl+EH6L+IOwR7Qf0f8yhoJBcQqwyJ8TfBL7QvzjDgG0/td2dweYGIDIPkg+SX+IALXoX/SjvYoBRv5V7X/K/9Zm8/QSAPr7oTHsx4kEgNHf9xIARscuz5QA0N9nfNl/kKNSPXKSh33XjdI2CXt2/iwcdh/55KM8z93mTOo2dYd93pOcD7v7fT3jfNuY6wCMSwAADvj+1t9H/3H7nSuXNp8m0a6kOkXUg/xXot3ty9F89NWifT4nt3FsWgNR9hACbDz3y9bnuyjAaL/PBzkHqfeq/rF2WPUr2fd2G1si+rT/17m+Fiv8RzpAjF9Z37p85/lnfu3IuXPIV5r5v7se/QeQ/2dB/vG8yi3+SM6D+BuxDgu+R+fbtv4Ssd8xxsl/yfkHMQ8hgGQ/b+t+ROKR95+j8kHUK/lv2/4pBqDfcvtzVf+w5lsf10zrlfbUZkKAzXOrP3P/QfrrA32V/LPqv4kA33j1ax/4rG71N/MfhOlcoASAfn/QdX/oSQAY/X0tAWB07PJMCQD9fcYlACyvAABi+okeienvNU3z3vxB1X5B4GiPOON/Mm4vOE4+NC4B4OcLItppmvv+YfsdZy5tPoucfkbePeLO4nxOulmcDwS/FPkjSUdb2Y/ofiH2JPAc41ueI69nbbGWXY8R8I5YAIGB9n1G6C/WNhBeFzKY+x99QeZRD8Dn53a2tedCkFjZuPrq0S89/bF5If/HvvLkrYX851v9JTu/R9SZ+w8y77n1cAh4bj+i7jUdwHP6XUjwegBB4K2IXy3kh3VB7F1YoO0+bvUXDoJStM/GIt8/HoW8+7X4eUj4uVYccyyi9hQAos1JezgDLJ/fawPQ+l/cACzyx9v5hQOgRP47/SgueGJtc/v41179xpH/+MBP67tDCOyCgASA/shBl/zjWALALm+8fTRLANgHSPsYIgGgv8+4BIDlFQD6vv0fctNl/x/+Bfa+nlMtPtU0zfXDT9VL6zgEADht3tbL1S3SIvc+tf1vzjy++XwrYh959ZXYR8G/QrAroc8R/Fo3oJJpX4NCQLQXwYDroJ1uAJJ+3xqpB3En4Q8y7+1wAdQCfraGuQK83QoAlvFcN/pSO9eCeODrDUD+B3c+8I/3zRX5/7vB84z843lgnzZ/kPviBui0t6P9niJgY0norXCfr4WIfonqW3s4AMJhYCJAcQSkqH8IDWVuRPRbwkERBhLZxzjeJcD2fU2L5JsIEAUAOSbb+U0EiPGt/rjVXwgIWAtpAKj2TxcAov0lPUDkf5G+8sb5XCQA9EcOJAD0+06VANAPnhIA+vuMSwBYXgHgnT2TUkSlQRz1txOBf90z1r/dNA0EnHH9jUMAwO0QbxjXBc/1ur/67e23QQQwAk9yji3z7zu5+HQEeCQ/F/0Dye4+KAZ027vHIQIEMS+R/oj4k5iPui3XZS4AJ/rdc9ixR/4Ht88T+X/k729deWLze5bzXyL/IQAU8h4Wfx4HeXdHgEfu3QVQ8/ureNBuM8EgpxSEUOBEHRH4/CCBz20p+h8ugHwdw/ZtTav6zwr/+9iaADB8HKP9JPq7bkH+v/7q1xT5n+uvuEldvASA/siBBIB+37USAPrBUwJAf59xCQDLKwD8Uo+kFM6wDym/e9cvOBQCxGdt2P/UUdvevuvZDt8xDgEAt4fEd7f+hiFAJwBJvUf2q2W/ROhDIKjjPO/fI/21aJ/Nh4BghB5knxF+CgJ56+SfufsW7Y98fpuXRAEIACTu7X3Y/ikixPmsoF+00RkQ7gZPF/A5VkuA625cfXVeyb/XRIBdvxb+MzKNFACz+CebfxB4azcCT/t9rvZf21jJv5W/j4g9c/pLSgBrAnjkHednBN/3Pbpv+5HPb9eIcanoX3ef56WN3239bve3/ZY7wCP8O9vjFn/mHKh5/uYAKIX+PPJvgsDa5vZHZPsf9nWhtuEI9C0A4IeNHhUD5Hn+wnDox97KYkp4PUb90ZTn4fZXN479qusJJABULA6zJwGgn/c/PgsSAJZXALi3p+9RvI/wfwH/e/U3HAFEvn+9R7zxPxBpBeP6G4cAgIKT+tsLgf/9ye23oyZAifwnB4BF0OMYdwvAMUl/q6/k8YczgI6CIN5O6Bn9DwKOviDgjPDbOEb/IQCQ3EdbPm4JAbDxh5WfY+zYzsECgOEAiHUhBpggsHF1PiP/9nx5+z6Qf7fxg1h71X5G/yOSHy4A64sxXcs/+5geABJfiDrTAIrt39MDMNbGsZ0uAbZnpwAr/RvxH2zfHccuFtRzlXOakOCiAsUAFwGC1IcAAIEAOfsUHXxMuABo60fBv8jzb0X+o/CfraHI/15fFeobjkCfAsDvRvXeDzdNo4djgOrD0/qhJwGgTfwmcT/o4Z+y6bZKAGi/D7KoddB9CQDLKQCA4OGOBQd9v+w1HsIwSKkeOzH4uaZpYIHfC7+D9EEAgINjXBH1cQgAR6b7b2NOzo7CgLg7QI3wM6oPwl+Jv/XztnypiGArYp9JPwg+iXzeJ/mPKH9xAVgV+xrtx1zv85x/kvu8zVF9tJswEOv6/Co0WH0A1g/AmI2rr97xpafmpuDf8Ue/9b6VJzafB9nH80Yk30g8SHcQbSvmxwKA1u7CgEf9q0jAQn9lHol7i3S7iJAJfhkPcYB5/3lO5P37uEzqfd+JvKcDcC20cbzdAaAV2a9uAp87XBBw0u/CAMcZ0Q9xwEm/5/tzvyUEiPzPybfVzF1m3wLArfFPFv9o9agYTOOFlwDQ/gEpAaCNx0F+QOexiF6OM5rW52flpqZpfqNHIiEBYDkFAFjS4YDKnwPtzxceJ+dIAIBg8a4+vwgXeq24ReBTIM2tKL+R6SDyrf3cVm31LdJtBN4JPSP2FnlvRf6ZChDjImpf1+Gt+6JYX0S+C9E3Qp/OgWtMjgGOw9YeJfK/NVfV/gv5DwHDcv+HEHxG8U0coM0/jfPofkTvg3hXccDt/SDjRqK7RfzQ3mkz4m7r+5wqCoRVn1H+HP0PZ4HdESCugftla5Z92v1rTj/7mRZg1fqtTgBs/D7e7wxQb+kHos9if9z3bVj/Rf4X+rttzE9uHALAmC9Zy+8TAQkA7R+oEgDaeIxKYCQA7PMDuIDDfqpZTgEA1djx/THqZ0bzpo/dfXMkAOAOALp710G+QH/1ye13rWxsmggAAl4etOKTXLMvEe0clS/7HM9x3Xk8HrbN5xzW320bNj7Oa6JDuAlsf33r8p3nn/n4XFX7f6JW+y9R/4j0k/SDfLOPbXQJOPH3dADr41gQ8Ij+I+efef9sy/O4X8YEeWckH/0QDsrxAfdRA4DRe9t2jylM7GNr0X3a+yMNIAsD1h+3+lPO/0G+JTS2g4AEgA4gC3QoAaD9o1MCQBuPUUmJBIAF+pI44FNZVgEA0VikuI36mdG86WP3iaZpfuKA7/f9Du87BQD/q/BZ099BEFj95tV3r2xsftvt9GHBD3JtdnySahbb26OvjAdZj3nclr60Xu5Df/fR7TeBIl9HWqs7144hAmxsvXznQ3NC/s+du+7YV568deWJwbN2qz9Y/uMBkm1kP5Hs3JdJuEf42+O7c/N47Gcibn0R5b9Wn/WDuMfD5qZrtGP2d9rLOe1WfRGdHyICGJFne1qL8wv55zpdIcAEgcH2CRX8O8hXg8YOR0ACwHBcFqFVAkD7R6cEgDYeo5ISCQCL8O0w2nNYVgEA+dijfl40bzawQyrQ9aO97a85q28BYNlTja4J+K4Dzn7r6i0QATxy7lZ/t897sT0j4malj76IxoNkF+u+Rdxp64/2EALquM74UrSvruspA0wxiGJ/qeAfiv3ZOTkXgkCK9oPo4ti26yD/z3/87cfO4c0223/nzl1319985/0rTwye9lv9gfxHsb9U8O9u7FsEP+Xbk6xHZN/7HQPsA4syj3Z8kHE6AGj1t+OU689CgGXswBwD5ggI0cAFgK79310BrPK/cxv1AcLKT5s/xrXJfk0FYAoAx/KYUf7jQfq7W/afuLilav+z/QmYl6uTADAvr9TBr1MCQPuHpwSANh6jEhMJAAf/LC7KjGUVAFDUdtTPi+bNBnbzJACg3sTNi/KlMfHn8StPXn3vysbmkx5ldyLPCLy1Mapv2yoStPpy1D9EAooHZTu0Pc7HPjtHuAi6bdGXSX+J9iNfPgSAU+ubLx99+PlPvP3cHJH/xwdPMdef0X2L3Cf7vh0HIQf5NnJf3AF+a0CS/txXIvMhEiB6bkIByX0+jtx6G8P2sPs7+W8T+LJ2chJYG6P2WKPzYPTetyD6bRdCu394n9v6663+WPX/OFMArBYAnAVO/j/w2YeQl6Y/IXAYBCQAHAa92Z4rAaD9w1MCQBuPUYmJBIDZ/tyP8+qWVQC4RwLA3Asg4yTVfTsAxnmt4/x+mJ21swjgkXYQ80TOabknKTc7PsSANMYIevcYkX8XDep6w+aB9Mc4nqPjLCjEn2Q/iuT5bQDDDbC++dLckf8nBt/2yH8l8UbQLbof0X5G+I1Ms7Af+/zYhAMKBpyb5qGon1X5bxF7rgGizn1E+9tjiyCQyLxH5N0BQJKPNu5zy8g91q+kn/uV4DOynwWAYW1Yr+T10+I/1Pq/9brl/P/+oyBu+hMCh0VAAsBhEZzd+RIA2oRXAkAbDwkAB8dj2a25yyoAoIDcqJ8XzZsN7H6zaRrczWEcfxIAxoHqYdd0EWDrSRB2q6hvNn8n5STZTuajyn4RCGKMEXIKB3WeOwXqcVk7CD+t/RQK/FyM6Le3hSiHRd4t/zFmnsm/EXUKACD0ed9t/B7VB8GORxpjfSVFIGz/ZZxX9Cf55q3+jORn63/Y/tFPocDuBGAOgCDssO63HqgBsEsfXAGtvjjutJHkc2sE386xcz7G8HE8hIDu1sUBkf/Dfh9o/g4EJADsgGRhGiQAtH94SgBo4zEqMZEDYGG+Ig78RJZVAEABuVE/L5o3G9hJADjwx30BJnz0m1d/dmUDIkAq5hcRecvnj9z/lv0/Rexz6gDz/3NbKx1gSNpAsfQzt79bIDC3cx/bOSP/xx97+shKify7nZ+2/WLjT9H2nBaAyDqj/RZlR9Q/2oq1n1H+vOV65g6okXeswdz+6jyo1v0c/ee+Ff7jetxeiPx/HpsAUM+DuSDnlu+PbedhfanNiHwnPcDJPW71F4UD87a4AJz8f+BzD799AT6Segqzg4AEgNl5Lfq+EgkA7R+eEgDaeIxKTCQA9P1JnZ/1llEAQOX4T0oAmHsBRALA/HzP9HulQ0UAI+th7499I+uFxLf7CulnqkAZF1b/OOYadQt3wc67Anhb7QPhtbY5JP/vf+g77z956UrY/ivRxnMqNvwg0d7GMQMj+rTW1z53BNRjjvcto/lG9FN034/bY9vnb9v5EZm/GyTfqvHDCeD7POZ1WdQ/xAA7ByP+JP+dYxMTbE06BFwkoMjAfov8B+FnwT8XBAbbdAGcuLj1+vGvv/q1D3zur0X++/1a0GpNIwFgcd8FEgDahFcCQBsPCQAHx0MpAE2De5SP+t7pzgOxfsOMfwXje/RTPT7nLgY67u/9tBeWEgBm/IM21stjOgDt+CXij/SAVI3fC+95W933iv+WSkD3QMzLY9r7dY17zNoetv60n9uxb/PXN1869sh3PzkvBf9+5oHvvP89X331yf/1r69sf+QCbP7Z6r/7vkfm26kBbvtP6QGRRoCxbu/32gBu42cVf7b5GB/L/cj9t1QCt/Vb3n7Y8QuZjzz/SvSZFlAJfB3rkX4n75G7bzZ+3vovtV1M+8zzp+UfxD/tF8Jvdw9gTYAg//+HyP9YvxyWd3EJAIv72ksAaP+wlADQxmOvH8t79ckBsLjfGdd6ZsvoAJAA0M/3xl7fKZPokwBwrU/3oveHCPDtYtuPqPuO9ABG93PaAOsDMFKPLS37sY+INeoBgMgimm/Hyc7eHW+3J+Q6EfmfR/L/ni+/uv2eR1/driKAP3eQ5pIGkPYtsm+2/XAAhIUf7Xm8iQS030flfhcOIsof83AeI/5prLVFe9kPO74dM6LPLedyy3ZuS8G/ZPWnnb+1daGha/8flh5wAgIBbf7d7cWw/Yv8L/rX0jSfnwSAaaI/3nNLAGj/cJUA0MZj1B/dEgDG+7md5dUlAPTzGRr1s6d5o+MvAWCWv1kmdW1FBAiSTjGgFPJDeyH+1aJvZD36SNyNsLbIP4l/nUcRgIJAFQd8DIoARuT/5Xkj/7d89cq3323k/8o2t1kEIPHGczbSH4Tc92nH9wh+6ScBZwV/I+0cm+z95g7gce0vuf9pXjdlgNfF/H8/rmuw/+50BwBzB4SAgMg9CT1v+cct2nN/sf1jbggFXgvAo/wl8o/b/F1gLYAo+PdfHn3HpD4XOs9SIiABYHFfdgkA7R+LEgDaeIxKJiQALO53xrWemQSAfj5Do372NG90/D/dNM2N13qDj9ivuwCMCNxUpp391tVbVja2ntpp/Qf5p1W/RvhBTnO1/kLmrT1y99O+Ed64fR3IfT5u7UfE+9T65svHHpof2/+//YunbiX5N+L/ZRcAsggAYovnWiL2w/YL2SeRb29Zvd8s/yDQlgoQ0f4daQHRHySdBB1k3vYjks/8e5JxP3byz31sbV7J42cqgFfsd5IPop9IvVn367kssp+dAST/Mc76Sfoj+u91ABT5n8qXwnKeVALA4r7uEgDaPxYlALTxGJVMSABY3O+Maz0zCQD9fIZG/exp3uj4/3rTNPifOI4/CQDjQHWca5791vYtp9e3nrboOyP73JKY8xjbbNUfdmxjd4oHO9bvrrO+efnYQ8/OTc4/yb/b/q9sv+fR4Q84AYaKAHQBUBCI45ZQ0G3rHJcoP9fgtjOOkXwr9oe+AzxA8jmeYsK1tl4XIKUIUHyILSv+c4vK/+3ifyL/4/zMa+0dCEgA2AHJwjRIAGj/WJQA0MZjVDIhAWBhviIO/EQkAPTzGRr1s6d5o+N/umma6w78jt/fBAkA+8Nptkat/sP2u09tbD3rEX0n71bELkfzQdjjASeAjQ0BgMeF5Mc8cwzASWDHnXSAaEN0/NT61uU7Hnz2E3NR8K9pmnd98dvvu+WrV57ySL/n/bcEgC+/WlIB3h01ASgCABMQat/W6v92DAIf/bTrk+QbEc8EH2Q6xhdnQCtdwNcq63SIPM5DQaBE+o2g0wXALdephJ7EnXZ/brMwwDaKAZbnn2/tZ6Sf9n8vHOi3ANza/sjXXv2GbvU3W98RC341EgAW9wWWAND+sSgBoI3HqGRCAsDifmdc65ktowAAcofo8aifl+485KKfbJrmuB4TxWCc6bQSAK71zTGr/b/65Pa7Tm9sPW+5+EbwnZw6ia+E31MAnMAWW3+Mt7QB7JeCf7C/hwCAqvgUBswl4CkBpza2Xp0r8v/n30rkP1n+QfofjUcIABAI7PHoq9u3/vWVbZBgpgPY1kh5uwCgkei1yK0Pwu9tIOBRzT8i6ZYKELf/K/tWJBDza35+JubD9/N4zuO2S/xZmd/bixhglf59Tmmziv8cz23cJaCIAbl9a/sjX798UeR/Vr8lFva6JAAs7Etrdsf7mqb5bE8/Xj8zxhzKYa8Cbg/2sZ6uHT/CJQD0Q2IkAAx7ty5H2zIKAIgaf6LH76Ffa5oGhFF/i4OABIB5fi0/+q3td57e2PqeRfKDyHvUv5L4QvIL6aczoEb4fT4JPxwFqc/mRV2Bja3BHV96+hNHzp37iXnA7Z1f+ObP3vLVK09nYg/Sb9H/uAPAux+9su0PkH8WBYQwcCWJAH7bP9yKzyP+cQu/FP0n6ecYP3YBwKL3JPhxVwAn/PVWgGVMFOrz2/45aS9rWl9E+s0RECID16bQEMde1C8LA2k/FQR0kYF92GaSTwHA6wiYWGBCwdb28a+9sn7k98+DjOlPCEwSAQkAk0R7sueSA6BNeCUAtPHoRib3eywBYLKf41k62zIKAMC/TwHgU03TvHGWXlRdy6ERkABwaAinvMCv/MP2O05vbP3ALf4g8f4wUh+FARG99kfk+rOCP4l+2YZzAP10Btgag+1TG1uD289/5+PzQv7/7f1//95bvnrlWeT8e1S/knvc+g8iANrfw0KASRiAEGD9O0QAFPILAo6tPXgrP5J531IoMLt/FP5zkh8WfWtjAUAn3VaxH8QcVfytUJ/vu/W/M6aQ/Zwa4ONZzb9sU/Q+k/3S3xED0E5XAFIh+EAb9k9cdPL/gc8+9LYpv/11+uVEQALA4r7uEgDahFcCQBuP/RL+7jgJAIv7nXGtZ7asAsDZHh0ASAG44VpAq3+uEJAAMFcv1y4Xu/rk9ttNBIgcf3cBVDLvaQJZGKALoG4hELQi/yYauAV+3sg/Iv/v+eqV5wv5pwjQufWfCQEg+yYCRHpAFAfMrgGkAxxH9N/IP6L6NfefpJ52fysKSGcAUgPKA2Tfo+wmDqT6ADY3iH/J8+caqb3bV88d1f4RuWcF/xAILJcfpD0eLgDUNAEce1S/3gawTf6d9BvxD/Jvtn+R/10+jWqeAAISACYA8pROIQGgTXglALTx6BL7/R5LAJjSB3oGTrusAgBy9vf7+djPuJtm4LXUJfSHgASA/rCc7kq7iwA1r79E9YsDIASAcAq4awBuATgAwi2AyP8X5zPyX6L7QfxZ+M8i/+kuAMOO6QLIToCPIDIf0XyQdmf1hugAACAASURBVCPyINpm648+EPfuGOuvkX8n7h7RL2tgHawfxN225gJIRf1SfykEGGNI7HP03sj9EOLPyD/n4LzcdzHAo/4UAige4Bi2f0X+p/tZ19kbCQCL+yaQAND+0S4BoI3HfojKsDESABb3O+Naz2xZBYBf7FEAwOfnrdcCWv1zhYAEgLl6ua5xsVET4HkQebsrQHYEWKG/mudvEf+c389+Wv4xd17JP4r7lag/I/u5zffhACjkn6kAMY8pArbOo1e2fyYKA7oIUNMAGNV3BwBz9kMUYHFA5OR3RAEKCEa+U5TfiX+sH+072rI7IIQDRPqNxNMBYNF6vx66Aoo40OkrRN8cBMz1z9Z/Twkw8v+fZfu/xsdQ3eNHQALA+DGe1hkkALQJrwSANh7DyP1+2iQATOsTPf3zLqsA8L6maX63JxEAn59bpv9S6gp6REACQI9gzsRSZ57cfpffItAj/2b/t4r+cRz7RSSImgEW9Wfl/yD/81Tw7x3/19/d0sr5LwJAh/gX0t9p32X8z3z5VSP/3CIdgCKAkX4j3tXqD7KOVAEXBjxtoO0Q8Mh/mYuofhIAcjvFARMAcJ40zuYY+XfnQI3S1zoAbMOaTAUoa8D6n9bjWIgFzPn//9v71lhLqvPKk+bRD6B5OGGiKIqsUZQAipruhmEQQxCyPYTgF8H9uH1v4xCCmYwniizLsqJoFHUUjfJrNIodDE3f200MGLDHIbYV04BbaMI4jMcTZTxW4kEeJ2Nh8FhWZDm4uzGoVaP1fd/ae1fdc/vepuvcU1VnHam067GrTp1VVffWWt/6vs02Rf5F/jvxjOsk5AAY8D0gAaBOeGdVAMDL6V0tjgYhAWDAfzRW+WmzKgBsa1EAwKgst01wTPpVLqE2TwABCQATAHXqh/yNr1U73/+VH3/TLP1RzC/XBSgr/BfzdAug/cqPj7/vC9/8cB8L/jGqnyL7LPYHy3+K7teLACJVgPUAfGhAjAwA4o/I/4nKyb+7AOAE+OWGCOAE3SvyN+ctHSDSArgNLedpvYelH/Np218VfRrzaR8j8TnKD6LuLoB6LYC03vL9C7s/BADWADhNq8j/1B9pnUAdATkA6ngMaUkCgAQA3M8YTrHN4SAlAAzpr8SZ/ZZZFQDwu/+wJQcAXDb3jEajXowAdma3x8z2lgAw1Et/99era2siQCkEmN0/hvZL1f59pIA7v/LjV9/3hW/1hvzv/Ozf1Yb6Y86+CQAF4Tdin5YjLQDLJgzU0wRA+M36j+h/9EnrTBgoRYAg7ZHnbwUCze7PWgAcJSAIveXsI0qPyL1PJelv5vaX20w0CKHAiDuPEU4AWv3TtkIgSOtif/S1KYj/HJatyj+H/Ytl5Pwr8j/UPxN9/V0SAPp65VY/bwkAEgBwl2wdjUYfbpG8SABY/dkbao9ZFQBQtO/3WnyGPqKhAAf1iEgAGNTlbPyY3/yf1XXv/+8/ftGq+zPC/0IQ/cj5Z2FAcwt85bVXd33x7z9y1YFP48bo9ufAgQ1G/o+deJGRfZL2ZsvtZV5/cgrAIRAuAW8j+h81ASz6z3m6AUIUgBNgDyz8QfhBsikAYJ1NFpUvCgaG7d6G+WPevhH4sk9E8ukUKEi/WfjtmCDokRZgJN5z9+0cgszT9u/9slPA+pg4UAz3F0IARABOe//rj76qgn/dfgxm9OwkAAz3wksAkACAu/vy0WiEocfWkt+/lj4SAIb7N2O1XzarAgCi9R9q8RnCc4bnUp9hICABYBjXceVfcc/XqushAqAWAAr/7WfEn1X+6Qz4yms/3PXF/9sb8r/9z79xw7XHTnyDZB/knqS+Nh/kHSIABQD2475oPdLvtn+z/wfJz9s8FQAiAdICbN+nT1g6QBIBbKhAEO08IoDN14i8k/YUzae9P+z4XG8CQaxzp0Au8me5+yTwqQ+3o40pRftjm+0TBN9GB3AXgA3xV26Lav83f/xpEC19hEDXEJAA0LUr0t75SACok95ZrQGAiuP47Wsh92vpIwGgvWe0b0eaVQEA1+nulp+h7X27+DrfFRGQALAiNAPacNfXXocI8A2vCRDD+8XQfzYawH8D+f/2R/sS+Qf5v+bY8b8FCbfc/TSkX14GiXchAMKAT94/5puR/3LZCv9F/j+KBnKbzfuyOwMw7+kAFAEWgvyjdfKfI/u2jcMHBvH3dZFGgHUx1F9en6P8qYCfkX6SerbZNeAuAI/u1xwDsZ9H+L1OgBX/K6L+lgYA2//HvnjVgB4B/ZRhISABYFjXs/w1QxAAfrvFl26Q4Fkcfuu6FguYQSCQAFA+ZbM1P8sCwDtafo72qBDgYB4eCQCDuZSr/JDf+PobN0AEGDP83w93Hf32R28+cAQvXt3+HDiw4eo/e/HGRP6teB/z+b3In0f5M8ln1N8FgYLMwxlglv6I6Ftk3wk9+jLSv4P9YnvNKWAuAe/7y8eKdIBE/oPYF8X9GOEHMcd8cwJ557qSvGM9yLnb94PcMxUgovm+Laz+Rf9U4b9B9Gn1L9pTe59/9YW3P/Alkf9uPwmzfnYSAIZ7B/RdAMD539ti9fo/Go1Gs/j3+D0tiigSAEajnxnun4xVf9ksCwC/NBqN8DdkLS6ZtfT5qOoArHq/9aWDBIC+XKk2zpMigA8BaEUAf7jr6Eu9If/XfP7FG689dvzrjOQ7UfeCfUb0LervJD4Rf5B0TmHdRyV/i+CbAFAM83c0Kv5HSgCj/PWWowLEfoVwYCLAl0HsGbX36LyRfhMFctE/pga4XT8KAlotgEzyjdCD3Me+LPJnreX5+/Et1x/kvsz9t2Xf16P8LhqkPiz6Z0MEmrhg5P+W+5/DPwx9hECXEZAA0OWrc3bn1ncBAC9V8y0KABjHe9Zst3wxxdBjayEla+kjB8DZPZd93nuWBYCfHo1G/77F5wjP2lv7fDPo3BMC/Du7lr+fa+mD+0w1IhK8HZwxEeCrP/7Gncj57xX5/5aRf+byg+Bzsuh+uAG4jm2270fE3wh7jvrn7R7Jx7F8+D/WA4gigZEGkIYGTGkB9ePeCCeAiQA5kp8i+qwFUET5ua3ZltH8+vwKlv/kDqCAUG+LKH81t9wJ4JH/Q1/CuLH6CIGuIyABoOtX6M2fnwSA5aT3xjcPZy/3RPXytkmLBIBe3gqtnPQsCwAoBNhmShJEuXcpDaCV+3LaB5EAMO0rMI3v3/vcd66//bP/696+2P63//n/uQGRfyf/ObffnABR3I+E3/pEbQAn97Tzk9AXLSP9jOKzGKDVAOB+EAvcRWAt+9JNEH1L0WCcCOB2fncHkOyPSwMwR0A5vB8i9IjWR8QeYkAi82b9pwugUdwv+qX+yR3Q2P+F14L8/6XI/zQeRn3nm0FAAsCbQa0f+0gAqAsAeOG+tR+XrrWzxP8iOB/WEnVaax8JAK1dnt4daJYFAFys21t+npAGgGE69ek3AhIA+n39Bn72Bw5sqJF/Evtay4r8XgDQ0wPC9l8Qd7P9g7xHOkCd1HvagG1L6QEQCpgqUIwSYIS/SAMI0QB9t3Pb08erUgRIdv/I+0dVf4oAudgfI/Yg9EghAOmPof1S8T5G/0n6i+UxFf+d/Lv1f45W/786WToARP4H/ggN9OdJABjohR2NRn0XADaMRiPkr7dlX8dxds1QxA34odBYW/hRIJAAMNy/Gav9slkXAFBDpM06AHg2FTBa7a7r/nYJAN2/RjN6hk3yz6r+KeLPiv/RWgqAE/lUGyDZ9IPMF1X83epfCAWp8J9H/nNqACz+IRBEH2yriQOWNpC/w7aFCLB3hXSALAC4GECbf4rul5H+WjSf5L+I5I/pe7rjxDaR/xl9tAbwsyUADOAirvAThiAA3NYigcXL9j0hjKwA2aBWXzYajRBhJHFvq5UAMKjb5Ix+zKwLAEip+d2Wnyn8TQKB1Ke/CEgA6O+1G/CZF+SfBf9g8S/nMfwfiLmtt210AhQ5+xbtj2XMJ0GApL7RN21fua9Z/SPSv92EgBPVdkT/w12A7XAC2AQR4EsnKooARvJtqL/sAGhW+kfkvxQDzAlQVPvnNrQcwo/rkCaQ5m17Fgkaef8i/wN+fGbgp0kAGO5F7rsAgCtzcww71xZ5nSXL7bUt25V5DSQADPdvxmq/bNYFALhq7mpZAECKzi+sBvwMbwfmXf9IAOj6FZq58ztwYMPOz3/zeg71tzMN9RfD/AWpvwbD89nkZD1X6mcl/9Luz3Vh6TfbPtbFRPLO5bSd/dkXy07wM9H3bST9XM+UAIgD/woiQGH/Z+6/kX+z9zuZpxhAIs/c/0T2ozZA2h4kP28PdwBrBrClGOB1AE7NPf+jr7z9kHL+Z+7ZGs4PlgAwnGvZ/CVDEABuaNEBAAL7H0aj0c82gRrgMgqWIbLYtv0fGEoAGOANs8afNOsCAGC6bgLC2t1yAYy9A/F+cn3USeiyECABYOzl08qpIbDz839n5J/V/mtRfqv875F/t+V7BN+i8il6n9cx4o/tzflyn+Y8+7Ll9nrrxQTr63x0geY6uAMgAsxRBGhU7Icln5H7ZW0R1V+2LTkDfP812P4rJ/+q9j+1G1xf3AYCEgDaQLGbxxiCAIChVNssYodj4QV+6B9EFCF2MGrfZisBYOh3z8q/TwLAaDSJNAD8XdKw0fX7DsURPxwi5kdGo9FNo9EIaU1dFAIkANSvnZamicDVT754HSL/qZI/Ivwg78j7L+aN/Fu0nmIAovDhBEj5+r5fWm/bPYKP6DyOa23Y+fEd1jdcALYcFn9zF5hLwL8Hy9ny70IAIv1O/HMxQKYBmGsgnAAmAiDqH8QeNn4S+2XzzT4R0a/1L/okAQDFA194rZrziH8aNWDv8z/66ts11N80b3F9dzsISABoB8cuHmUIAgCi9X/YIpFFRHzohQAR/YdNeRLRfzkARqOf6eLDvk7nJAHACeh8i3+TKM59SCMCpLsYJB/1X4gN/+5gSNN3jEajSzomBEgASJdOM1NFYMd//vq11x478Q2Qf5Bvi/yz2j8IOwn8uHkj8dEn5p3MB9HnMVc4hvU1lwAt/1HQL0QBK+pXzjNlgMX/+J0cNSD1zYKBpQRABDjm6QCw+++zIf4gAHi1f1tmbj9HAMBy2p7na/sE4Uc/CAxO/lHt3+exDPJ/y/3PSa2d6l2uL28JAQkALQHZwcMMQQDAi17b49jjRfvCDl6vtk7p51uuVF6+hPNFHKkZffi0Ha2Fq+Ln+vDDJ3SOEgAc2LZHA8BzBcHulo4R2wndRqseFvfZHzQEAP4dggMJ/xMgEHTFESABYNVLqg4TR2DbZ7+289pjJ1502z+r+zPHn/Z9J/hGxknAE7GPqvyx3q37Tv6tTkCRApC2IdIfbgGKC+hrUfxwASQrP9fj+DEx598i/3Es7ottRvhNCIhzs2PCHXCiJgIwmr+mtpEOwGECLfLPaD9bEw68CODe53/01yL/E7+N9QXrh4AEgPXDer2/aQgCwJbRaATCzpe/NlqQOLxgDvHT9ovoOLxnOQVg1gu2tS0A9LUoJ/4u/XbLf5fwrMHtNNS/TWv9ewtxdi3YQjABXu/qgBDQ9t9dCByXrxUw9RMCo22PG/n/ppFwDvEXkXqsM8JPoh/pAJmw5wi/k+8QCZr96RrgcY34e4oAv5f7u92fNv6o5m/nUS/+R4LvZJ/byv75GJYyYGIAhYFCBHghUgDCEWBCgKUFuCvAhYE830wTQEHAFPUPBwAq/nPd3ud/9Ddvf+BLUH71EQJDQUACwFCu5PLfMQQBAC9WsNu2bWdH9GiIn0kUKGuKALMsAACLWX4HaFsAANGBS6OPnxtbrk+Cewt/50B+h+xQOt21hvX/9jMUVigEILULpHkaNQIkAJzuqmrbZBHY9vj/QOT/WznyX5DyFOUPGz1z7AtRwMQBi8iHdT8i+nUyTxt+4zilXZ/HtnXoF1H7GNLPRIGI4HMUABJ/ChRJOEjnk0UBnA8dA3ZsEwNKESAXAWRUv3QEwNrPZW63NqL8yPXnZPb/WL/3+Vf/+paPPw2ypI8QGBICEgCGdDXrv2UIAgB+UdtDAeJFG0WlUGRqSB+kS7Q9RnmT/GN5lgWAPx6NRjuHdNOc4W9pWwDo86gceN7wd2TcM3K26+4YjUao5TFrHwiYf/QmMYUQgH33jEajn15nIUACwKzdqV35vds//TfbSf7dlh/kn3b9WhQfaQClpZ/5/tzHi/vZcbhfauspBIz4u4sgyD5FBYoOFAdI5kshwNYxFQARfZ9PBD9t93PidhcI2Df2Pxo1Ab6cCT6JPiP/9eWi2n8UBLRCf2Nt/yL/XbnXdR6tIyABoHVIO3PAoQgAbY8EgJdzWLmv7cyVOvsTQdRr7k2+OJ8pWemTAACShkriZ/obV+qP344iZNOIMp79XXL2R2hbAABpQ82Kvn5ubfHeKu+5WRmtpLzuuLd+vyU8IQTsjyFf10NIkQBQXknNrw8CQf6T7R/E3aPsjOTnZRB1Rs19Psi+rff+lrsfy2P7R+oAv2P594VdH9X94ziJ0BffX67jvPUvBIJyOfWpOQBcNLB+8V03HjtR7YEIUBb+S/NFikCs85x/Twug1R8t5y3yf1CR//W5m/UtU0BAAsAUQF+nrxyKAIBCT229GJYv2bDaIpd3CB8U5QNpKH/fpOb7JADASv07LeICwoqUlPUgFV28L9sWAHAvYZz3vn7aLjJZPrPIb58V1yki9pNwU+Bv4vZ1uLkkAKwDyPqKAgGQ/2uOncjkvyDYIOgk+WxJ2rmttt6s+3mfcX1r/YNws18i6EH8uYztnB/XNrc3l5v7ME2gXM990ELgyCLAa5Xb/Mu2Pu9k3wv8meW/cACI/Bc3m2aHioAEgKFe2dFoKAJA27+DL9l4ORyCnRtV6dscKpH4rNT2TQBYS0GxlX7ruPVwFAxFODrTv34YArFNMQ6CCnK3+yyoIEVpUuIbaiS89UwvUs/6Q0Rp+xnlc4uUKAjIk/5IAJg0wjp+RmDbZ/9u5zXHTrxopJdWeZLytJxt/Z4aEHZ/Sw3IaQDpGMzXT8eJPmXBwKOeQpBqA6Scf+bpZ0s+8/XddeApAiTubucP23/6vtj3aRb9C/dC4QpIaQBFn+3YXnMGNEWAsi5AJvsW/UeRv6LKP9dZtX9F/vMNp7mhIiABYKhXdjgCAOzWGB4LxJMvdm21fa8FgJdbVFJvC4+1HKdPAgBfzEE01/Lb1tIHw5OBCM/iB5FakNK14LTWPnBoQOTr66ftNJMmbiCxQx16Eg6de1q+n0r8UKhxPT78O1N+99nMaxSA9bhqffyObZ838v8NROTLqLzl9nNdpAIwl9+j4+gfNQBAuhs1AoyoF1X+0z4UABrpBSDzdZKfo/3c1/ugH0m9pxpwOQkC5bEKMo+h/ngMa9MQgHG8EA/KPuz3yykdAKTfbf6o9J9s/yT+VgMgtr/wWoVq/7eI/Pfx0dA5nzkCEgDOHLO+7NF25BwvJesRTRmHL+7TSUXZUHW6jzndIB6InLVJbtfy0tonAQDX9f0tYwS8h1Q/YtzzttK6SZDdPhcCJE5nU7xuLc8cRACkXwzpg8j/vRMk/7+1jk4dCQBDujO7+lt2fO5/X3vNseN/m6P2zN1viAFBjEnEs1DgroByfdpm5N8j9die1jeO5QTbvxfzY5ej+N9K27lPczu+l9s4Xy5DpEj71ISC8ecDEWD3l0Huw/pvpP9kiABe8T+NBmDk/1UN9dfVm1/nNQkEJABMAtVuHHNIAgAq9k8q0o2CUX1LBYAF/a6Wie1aiAj69EkAwJOIquBtiiQ4FkQFvPTP2gd/Uz7YMmnD/XRTT0U4Xn88j5OMZOO5Q+rFtp7jRLzgJGmzNkfzbxdEpfUsLikBgFdW7SQQOLDh6i+8eN01x05+3Yh5kHXM1yL/tuxWet+GeSfztmxknqkBK/RLKQQ5Wk/ibcKBOQFo6Yf9ntF9/65E0C2lIGz85XzTsm9iQUT64/xS2kC4DuAEMPs/BYJynxAb7Nywf5y/n8eJ6sYvnah2mQgA4n/SLP9W8T/s/7WCf4vPoeK0PkJgVhCQADDcKz0kAQA5wojUt0nkypdGvFz3JcIGF8akyUaJTXO+bwLA2ybgHkEawM8O90/HaX/Z3S0LALi/QAZhB+/zB4QT90XzeWlzGcQW6VB9FZ/gyAFOkxJzifV71rmuhASAPj+53T73AxuufhLk/3gi/yyGRwHAiXkQ9hAFElkPEo1lq9rP5RAG0vpCTMj7Zpu/R+LrlvxM9hv9ClGglp8fUfuSzNtxi2g+0wO8jxP/so/9dh7fCL8LEBQivG+sg2PgqUIECNt/FgDcDYCCf28/9JdQV/URArOEgASA4V7tIQkAuEqTTAPAi+Pv9SDXFrnn07D988Uabd8EAPxff7Nji5e/u5yHELXeJKMrf6neNSGS2/e0CpBbDAs4qVQl3n84PhwoiKL36QMRF06PSRcs/dBoNIJjbD0/EgDWE+3Z+S5E/v8e5P9rjOhbHn+QeUT/jaxb5JwRe0bdx2wr+zFabutyhJ3ighHplIO/3HpPgl6S82XzhWUf28pjln3pMFhpO/s2v5PnWsOgEBO2P3W84lRzAuSh/k7tff6fvnqryP/sPFL6pSUCEgBKNIY1PzQBADbbSdpG8YINEeAXOmizxcvzVaPRCLnAJALTavsmAEA0mURkFkRmPW3GXfnrBKI+CZIL4jatGiNtYQvi2XaKxLjnHAIUarKg9gD+znf5A2EEYsX+Cd03JT7rbf0n7hIAiITathA4sGHn5795fZ38h8XdyLvb/3O0Plv7IRZ4pNxt+T4KgM8biS7SApw8lwKACwgk4+XxScTRIuKOY3FdOe/b4lyjH783t8X+VtyPaQAriA3JucDvjN9IISMRf99+9VPHq6uPnqisfarhBPgri/wb+f/XR768HuOEtnVT6DhCoE0EJAC0iWa3jjU0AQAvkoggTSoNgC+SIHYYm7wrQ5PBGn3baDTCyy3PcZpt3wQAkDKQy7bvGxwPZK/vpPVM/2pNctjJO3pAaFfDaz1SAfj8Q4hBIT2Ill1MC8DfLvzNhljR9vNHDMoWQzLi/8R6fyQArDfiw/6+Axu2gfx/6fjfkIAnEm+V/FHNnwX9nLynZVb3D8LM/ZrbMxEn+S+IP/a1iSQe20i86/29H9dF/8jZT+LACsuW65++i9/JY8X3Mf+f/YplO346Nok/Wp8S+TchACLAcasJsPvLr53a+1/+6au/cviFvhV/GvZtr1+33ghIAFhvxNfv+4YmAAA5VI7Gy2T50jeJebxYY3xyfN80XijxW/FSiedzPSKKZ4Jh3wQAXL+5CRIQFGOcpAiA53iSxz/Tv0gUVM7knjmTvkgxmGRUG6R0khZxCpWTcEmMwxHEGikuSAuAEDBJ7NZ6r8CthdQbpCuNO+dJrJtmYU4JAGu9M9RvdQT+5Re/ufWaY8efTJF8WP7Nqk+CHYX9SNKZEsA+IRKQxFME8Gh/jpw7gfZjpvmCYNv+xTEZ9ef6vE8cI1ISsJ65/zWHAXL3cc4UEwongQsdOU3AxAE7F66LvH7bP9bF77fvwzGT5Z8CQIgCIQBcje976nh17Wf/3w+u+4/P4R+NPkJglhGQADDcqz9EAQAv1yiCtR7RJHwHLPdwA6xngTI4D94apBVR/zZ+K8hIW4SkbwIAnvAbWvz948gLRBpExtsUi3gfQGDAPd+VD37j/ISJHQSbtkUP/D1EkWdcq0m7PvFdsLyPu1cmtY5CAAqE4vdB5Gjzflzt/sP9imEikZYAjNv6e7MWvD4c373aOU5quwSASSE7q8fdceyNm3Y+c/Jbnvsf1f5h3S8ns79TDFi5JblOOfMsordCa8Q+tllxPbPxk3TX27Ivjn+65dNt474r9sGxY7K+PD+Q+iD2WQAo1h097mkA0f7iIy9VWz/4mVOb9h/+i5+cW0J+oD5CYFYRkAAw3Cs/RAEAV2u9XADliycs5BACQEomkRqAF3VEzRDBA/lBGkIbxJ+/AdZqRMjaOGYfBYBJ1QEgvsAVI0nAgny2xAtkAgIQrhnuA+CNFJAufeCcnDTBA6kDkcVz8WY/fK5QPwOjFyBSjvOetACA8wUZnnTNEt5/Zctn/CNx3yAlAQLmJP5u4Zi43/EegaKYk67uX/5OzuO5m/aIHBIA3uwTqv1WRuCa5964ESJAIvCM9JvNPyL5IQikPkHWjewX8zkvP+/HfRLptv6w4HtEnw6C5rGWr/d9eBw/rkffm/saWQ/hIm/z4QTzcnGOOJfo78f36D6Pw9Zz/pH3nydss6h/Qf4v/uBnqk0LS9Xm/YdPbdn/0FMSAVa+/7Rl8AhIABjuJR6qAICX+vVyAfAlEy1erFEkEOPKg1BADMCL35uJsmEfvDzjxRzDD2KoOpAFkBO+wJfffTbzLK6GF/Q2jt1HAQDPAiKjbfz+010LHB/E6x3hCMD34jqvdI/wPkA/iBSInoKols4PHLNrAsDl8SycDos2tuF5QDQZ4hsKyfF5Ww1PPFcQUSDINJ+r9RIA8J8F13SahTtx70D0wD2JlCYIN3CqgLQDy9Pdm/zPCKx5n2IfCBs4BopB4pgg/ZP4u7WW+wfPCf4WT/sDXNocmhVpbnjG9Jl1BEIE+Afa7q3yPwWAwuoPm38i0DWCTXLNNsg9I+cpql7k3hfCgX+vb8spACVBj+Om1AE/vpP1XCzQRYPyHHiMSAlIosPK+5PsI8ef+f0o9Ieh/nyKaL8VAPR59v3FR1+qSP437T9cYXIR4MhTP7X7SN+GVJn1x0K/vx0EJAC0g2MXjzJUAQBY4wV/GtEmvJTipRoTxAAU4AI5Q0QRRB4v/HAo4CUZkUtMOFeIBViPF2e8sIKYwCI86ZdnvCBzeNtZFgBwz6AYGYjKWojF2faBSALsEcWGowMCD8gXorGcsIxzgqAEkrqS66OLAgAI4aTTAMprADwxBx+bDQAAIABJREFUkgPEADgjkNKBZ45Y4v8YCCmEQTxXILwgvtivPA7m11MAwH0HVw+i1M3zWO9l3Ee8L/F3B1iCwEOsgvCEvxPEEy3OG5hCfAGuuI+R0w9Bg9jimOv9O/h9OAecdxc+EgC6cBWGeg7/4tgbN+x85uS3GQn32gBetM9rA5C8l+TZt1M4YFSehfecoDNKn1v2SwQ+hIKctx/HBeE3oYEt7f8eocf3gnw3vz9/b4gKFCvSsXC8/B1O+v38fD6I/VMUAZDXnwWALATk7SD/WyPyj+g/p83JCXDk6Qvv/KQUt6E+QPpdKyEgAWAlZPq/fsgCAK4OCABfBqfZ8sUaLUgfojcQB0D+MIGMYB1IAMjHH69DJJp4oM4Nonz4zLoAAAFmGtFY3h8gX7j2nLCMaTUShe1dcwDgfoKQhfud99p6tePwLLFcDc/1FgCAFf5WTQOr1a4JsBqH57h7dDVcV/uuNrfjGkJU68pHAkBXrsRQz2Pnc69ff80zJ1/ySH8Qa4v6B5F+E/OM6JOUM0p/Jq2RcpD9iOBbkb84l3KexyzXcR77Yt7Og6JB+Xuiqn8m+k74Lfq/wjb0hUvgike/k8j/5gWP/G9CaxPEAF+3ZeGhZy/adxAvCfoIgVlBQALAcK/00AUAENv1LrTV5kvsJI+Fl/XfCqsv7/BZFwAQtYYgMkncJ3FsXMsuCgBwt+Aem8RvnuQxpyEA4BlEJL2LIsAksZ7EsRH5h2uhSx8JAF26GkM9l2uPvX7dzmdOvsyoupNv5MgX0XSL2OdlJ/dut/d5bqtH1XFMknhG9u34OJ5ti/5pvrE/iDjTCYrz8WOgL/fnueT9y99j58G+TFOwHH4n9GbpTykA2Q1Awu+1AIL8f+rlauu/Zc6/R/43u/XfUgDoBLB2/+Fqy50PPbt192Lb1WeHejvqd/UfAQkA/b+GK/2CoQsA+N2w2k8jqjuJF9s2jwlMmmltsy4A4H4BJnBntIn1pI/VVQEAeCKNAYRs0hi0efxpCQDACyIAUhna/D2zdCwIKDcCyI59JAB07IIM9nR2PFddu+Ppk99lvr+R7pqNPirgRx6/kX5sp5U/SLqLAbTt1/cZd+yyvwsFUZU/vru2fdz5nGZdbd/ivLEehJ7V/T3vPwr7YX1stz74fcz9P3qiusLI/6eT3R8kPyz/eR1qASAloGghAlxy1xG8WOojBIaOgASA4V7hWRAAcPVgRe4bCZnkSztSDVCPoPmRAODFzBA9nCT+bR+7ywIAiA+GKWz7N0/yeNMUAPBMYijCLtQEmCTGkzg2amSgJkEXPxIAunhVhnpO1xyrdu545uT3LHKeiud5ZD+v80i7RdRrfSICH7Z77499c/+8juvLNr6HhB5W/TTfcCOUrgKz9OM7mseqrwOp9yls/sjvD5u/iwE53//qVAeA605USAu44vFXqq2/9UQQfdr9194iHUAiwFCfHv2uAgEJAAUYA5udFQEAlw35oJN46ezbMfGSDIIBu3vzIwHAEUFRRhRA68u17bIAAEQxBBtqXPQFz2kLAMAMIxTIubT2ewauHRQl7OpHAkBXr8xQz2v7c69v3/HMye+DLJOAG3EuIuhGtgs7PZaX9Sd5Lx0CmC+OY/vUnANO+v1YIQgkYh/nE8flviYw8FzZUnSwviT6Ecm3wn71YfwY4be2cAbQIQCh4MqS/Fu1/1z0L0X6Uy0AbgsnQFEgcMv+h56WCDDUp0e/KxCQADDcW2GWBADUA0B18L6QkEmcJ8j/6YbEkgCQn3U4JIDXJK5D28fsugAAVGHLBrFu+7dP4nhdEACAGVJN+yRETeJarOWYGHmg6wW6JQDkv62aWy8EaiJAEHAn3E1SnqP0VngvkXNW2/coPPbN+1NYyBF7knlr0zFin6jcb8fAuRSRfBMo0rEj4h/7u0iRo/60+Zck3yP/ng5Qbve8f0T/sf+J6orHXqku+jce+WeuPwr/YT5b/Un22Y4RAfZ7WgBEANUEWK+7Wd8zBQQkAEwB9HX6ylkSAAApXsLe3xMSspYX3zPpgwgZhhg83UcCQEYHDgnkY/eBtPZBAMCzh2HizuSenVbfrggAuBtRSBHCZR/uw/W+Xkjruj0wyk9uN+ckAHTzugz/rHY893rUBAjSH9H0klinyL8RcxTro0CQLfueAgDiPuY4Fqn3bUbwE5kPAYHOgvK4nG+cj59XKSrkYoCJ9MO1EDn+rPxvxD9SAbwfHQNu+7/ysVeqrfc+Xm2aR65/QfobOf4mBHBdcghADIgRAmxdsXznQ09pdIDhP0cz+gslAAz3ws+aAIAriRfqWRMBECFbS+FaCQD1Zx2ukT6MCtAHAQDIIrXi3h6IAF0SAIAbxCjktvetOOUkBQGkR2DoxHGpTPWnuBtLEgC6cR1m8ywwOsAOjA4QZJsknSKAtUb+c6S/ti4RekbiQxiIKH0+Xo72Y135fSYccB1FhPjOtH/t/Eri71X7kdNPcm9D/KGoX2H153YbCcDWF+T/A49Xm+cXrdAfST6K/vl8Ge3nPIcERJ9iHfcpXQN3/ulfXLTvUxoicDYfryH/agkAw726sygA4Grid89CVA1E5kwiZBIAlj/reHHf03HS2hcBAOiieHLXhwbsmgDAuxI297tn3A2AqD+Gdu3bu7YEAN7FaqeDwM7nXr9+xzMnXyLZbra05Nfs+EHYjcwXZL3s0zwOl538UxCItjiGHdMIfwgFKSUgiwwe5Y9oP4k++nG+bMetR84/Iv8g//sWXQCACDBP4l+0JPQk+Iz4G/mnGEAhoNjP3QKnNr//oS9ceOcnu56LNJ2bT9/aVwQkAPT1yq1+3rMqAAAZvJChMOBQx91G0TUMwXYmETIJAOOfGTwnXRYB+iQAAOGuiwBdFQD4dwupKbPoBvhIRP3hzOnbRwJA367YEM93+7E3btjxzMlvOznP9vxsu3frfSLxIOxR3K/pCMAyIu15fZ7P5D73SbUFouhgcgQgfYDW/djGPH6L6B/1KL5H/OEEcDcA8/ttvfWBGwBigX8n1jv5f6zaPLdYCABLYwQAEPtyCoJvokCxvhQJlm+DCPA5iQBDfHJm9jdJABjupZ9lAQBXFeR422g0+mjHI7xnYqUFeZl/k0WxJACs/KzjBf7Wjg4n2TcBAChDBOhqKk6XBQD+3UKgCaLUUAXM8m8exEwMzbl15cez81skAHT+Es3ICV7z7Bs3mghg0Xjk+9ej8znHP+f0p/z/iOAb+U95/2XRviwqmAjAiP+47wiyT7EhtRHVT9b+o2HzR3+Qf5B9WP+jxX5cTtuD/F98z2PVlrlD1ZZ9izaZC8CcAEtWCwD1AJgOsAmF/crov0f2c3HAKPxXTxmgI+BwtXFhCdOpzfsPf+6Cu4789IzcTvqZw0ZAAsBwr++sCwC8sniZBmmGvbR88ezTPEjLh0LQeLMRMgkAvCPGt8AVecddG9KujwIAEMbfn1s6SGK7LgDw7sT9iKHv7ur5366V/s7+/mg0ui3s/mfiZCI+XWolAHTpasz6uew49sZNO545+Q8exc+WezgDEhEfM5+j/dm2v+o+QfTNdTDmmPZ9BelPxH9Zfn/O9zfC39wnCQPHLfJ/8Qcer7bsPeQCwNyh5ALYtG+x2rSvEABKESAJAKUYUMzXRIK8Psh/df78okSAWX+4hvX7JQAM63qWv0YCQEYDL2ggd7/TwxxbOBhuiiJr+Red+ZwEgLVh9jMRve6KYNRXAQBog9iBxOK5W4kIrvf6vggAvFvxt+uXQgjouyMA2OPvGYQh5Pn3nfiX1+ieFu9xiJBKNya6as8cgSwChAOA+f4W2acQwIg+ovz1fu4KKNYhJcBSBnLxPk81OJ5dBiYA5O01so9tQfptvS2Hpb8hBrAGgO9P278LBFd+6uXqkg88UW3Z+6ALACYCLNYEADgBLPo/jzbmjfzT7k9yH8vL7f7VpkgHIPnfuADyz2np1MY7jzwpJ8CZ35fao1MItCkA4EUO40Hr0w0EKADguuDF62wnvJSspdp8N379+LOAzRT3KKLpwGO9ycdavw/nhpxY2NLbwhwV70Emz/Y++E8xhN54hIexFqQLNRY+3IF7pM8CAO8GjBAA0tcFdwXuf4iBffvgnoSYguEW/6AD9+WZ/C37wyhwiNEO+mz1X+mewbVpUwCAO0ICwEpoa/3aELj22ZM3b3/m5LcY9acjIJF9y88Pkk87f0TxU+Q/hAEcg+vK/dOxYz8uoyWBR+vzbMs8f65rtpESUDgBrnz05erSDzxRXbAH5D8LAJv3wgEQkzkAUBNgKZwAFANI+tFma/+ytIBwCWTiv1SdPx/TAtrF6vxIB9i4XyLA2u5E9eooAj8b/5iRr3m2E6r3QlDQpxsIwEIKEoP8yjYmRKEhKgzhQyHggx2zKCPqjHOCSIE86jYjZCAPbdwHIHL4uzELH9wnN4cYMy3BCAIAhKAhfEBqIERBCJgWnnjG+igA8Prj7zpSUPEsY8QFuAKmheVKIgDOByIFSDHOE64akOShfnBN8DvP9h2K+++Kv/9DxUu/a70Q2Hns5NsgArhFPwr5BZlPhL5Y9n5MAfBofn1dFgJKUQAFA43006pfRPspAJRt6QYo17MIINex35WPfqe69AOfri7Y/aALAHserDbvxXQoJrgAmqkAZTpA0wlQCgL1+UT+QfbTtFRt9BQAa5kOIBFgve5kfc8EEADBwD+vtqY2CcsEfq4OKQRqCGwZjUY/H8MGItoLcrDeL9P4TkT7MXQhSDrOSZ9uIQAx5oYQZ9bLho37Ak6VNl0gXUAV/yNAYCEk8ZlbiUi2uR7XDYQZ4tpQnjH8jp+Le+Te0WiEyDHumzZxW8ux8J2I8iPVAw4FjGSAazwUwXgtz03b71Jr+U71EQKrI0ARwAh7EdHHMooEUghI220EADgD3Pbv60Hw87IT/mz3x3Iu3Od9bdmEAd9m1n72w3pE97kc87Zs1f5j21PHqysfAfl/orpg18FE/rfsORQpACECoBggRgOgCDAH8r+SANBwASyz+4PsW9E/bzFvy1YDwIUAW+c1ASQCrH4PqocQEAJCoMMIINr7z+NlGpEr5KoyutaWKIDjYEIEFGQEeflwzbQd7e8wzL0+NRAu3COIYuP6IcrZ5r0BEgXSjwgg7osh2qXLGwC/76oQv347SGSbeOL6wFGDYnO4bkMh/iWGnAfZBumGu+H2iL5DWMQ9BYLOvz1rIfTow/5lS6L/u6PRCNcLEWs8CxhtBVF+pHooCMArolYIdAUBiACpMGCq8J8JfE4PcJeAiQMhEGQBIESBIPVG4EnWSeDZsg+J/unWp2OwJkAICEH+L7v3007+dz9YbYnpgj2HKkxbLB2ALgAXAZIQEOkALgQU9QBSYcDDFUcHSFF/t/dH5D8s/xb5dzeAuwC8FgBSA7wuwNIpiQBdudN1HkJACAiBs0IAjhjk3iO6dl285OJlF1E2RLkgDoDEM+KGF+NyAvHAdrwog9BBUMBIBG8LwgMr9CxFx87qYnR0Z1w/kB6k2YBw3V3cGyvdF7hHsA33Bu4h3Bu4pxA1hcMA99vQSf9KlxPkEakleN7ghsEzg2cNzxCep/L54jwEOmCJCWQXpBT7YX/km+P6zOpzhr9hEBaBKcQkROXhJgE2tJqPazHqAO5niJOY4NSAawIkH24pHA8F/CCmiOyvdDdrvRDoGgIUAYzcwwlQTCYApGEAwxlAJ0DTNQAyjyH7jNR7cT9a9e3Ytj3n9NMtYP1jW9qfy5E64KKC73vlIy9VlyHy/76DLgDsOlht2X3Q0gBKIcBFgCIdwJwAURiw5gQoRIAxuf4mAkS0363/nvuP6D9TAcwJUPQxQSBGB4AIcOGdn1Txjq7d+DofISAEhMDZI4CXahAViAOItoFgvHXMhJdkbMeLMvpjP32GjQDIEK41rvlK9wXuFWzTvbH6vcBnDe9TeJ7GPWdYBywx4ZkUKV0dV/UQAkJgVhHY/uzJm80JUOb9B8HfcTRGBSgK/iUngBX1A+l34s8c/ZXblfqttN5JP49n5P+eJ6oL7nggBIAHqwt2PVhdsBsiQHYC2DxcAIUTYAvSAfZmAWBziABWGBDRf5u8JkAm9G7v94J/yyL8kQrgfVI6QE4DsEKBGxfcCSARYFafLv1uISAEhIAQEAJCQAgIASEgBIRAxxAIEeDbVs0/hgW0Yf9qNQFyeoCRcmxL0fog68U6Enf2uRqCAbYXfTy/P9bjWBH1x762X4wccAUi/0H+L0T0P6YLIQBwKkSAlAoQowOgMOAWKw64GHUBMCqA1wRg68MDLkY+P1qP8sMFEAX+Ut5/Wrb0gOUiQJEKULkIcPhzF+07iEiAPkJACAgBISAEhIAQEAJCQAgIASEgBKaLQIgAL8H6z2H9ymh/nmdefoPMB4EncWdbknmKAakNUcCEAds/iwomGDx1vLrike8Y+b/w1x6oLrzjgQoCwIXvi3bXwerCXWU6ABwBMVk9ANQEAPkv0gHMCVAfIjDVBNi3WG3ElCr9Z0Hg/IWYR8t5GwIw98F6EweKGgGeKrB0auP8kSe37l5sawzn6d4s+nYhIASEgBAQAkJACAgBISAEhIAQ6DcCO54+edOOZ06+1CT7sPn7Orfrg8DbuiZpDxGgJP02n/L5Y38rCOiuAT9Wjv6z6j/2A/l/y28+Xl34a/dXF4H82wQBwEUAOAEgALgI4MS/lg7AVIBwArgLgKMD+AgBm+YOVbXJRIBDhRDgw/151J8igBf7c3KfBQD2CdJvYsB5+zh04NKpjQuHPzeSCNDvh0RnLwSEgBAQAkJACAgBISAEhIAQGAoCEAG2P33yZSf9UX3fCDzIe7Gc1pG8x7B/sd6IPObLZasXUO+HY3J4QJB+zG8z8v9yddndj1cX3n6/CwBwANAFcAdFgEgHMBcA0gHgBsguAIoBnhLgTgCKAEgLwLRp74PVJrQmBHhaAF0ARUE/WPmZ12/zaZQAq/zPYQF9qECvG7BUnTcf0z7f97z5pVPnQgS46wiqseojBISAEBACQkAICAEhIASEgBAQAkJgughc/ezJG7c/ffJ7iZgHkQepLyff7qS92RfLuW+kC9hx6v2zUJDJ/5WPvly95Tceqy567/3VRbeD+N9fXfRrIQTc8UB2A0QqQB4VIIsAIP9MB0BBwAvCDbDZ0gEerDbvickEgAerjXOHfIoUAKsBYHZ/J/WJ8MewgFy21IA0VKATfQgA54H016ZFW4YocP7CQ18YLXxsVof3me7NrW8XAkJACAgBISAEhIAQEAJCQAgIgToC258+ccP2oye/T6t/ai2iH/Z9FvUD2Yf9Hw6BiOKXLdIHmqkAHPbPhIMi8n/lo69Ub/n1T1UXvfcTIQBABIAA8ICJANaWIkCMClAWB/TCgHl4QAgBHB2AxH/THkT+I/q/71DK+/dRANzWX1r6kxsg6gNw2foUNQOwfF4sWxspALV1JgIc/pxEgPo9pyUhIASEgBAQAkJACAgBISAEhIAQmBICO589cf32oyf/0SP5bvW3WgBG9HM6QF6XI/2+DlF9FvaL/mb59/V0DWwL2/+VnwL5f7S66D2fqLa+936b3AXgIoA7AcpUANQFqKcDJCHARgegCJCHCty82yP/sPyTxKeifqz4T5Jvxf68BkDqEwX+bDlGAfCcf0T4me8f7b4sBngfH1Eg9Uc6gJwAU7q79bVCQAgIASEgBISAEBACQkAICAEhUEPg6qOvX7f96Gs/sAh/RP890h/Rfov8e/TfovxcDleA5fUXxQF92esJINffRYDj1ZWPfbd6y52PVBe9575qKwQAigCI/lsqwP1WDwCpAHQBeFFAjAjgBQKtKCDmURjwfT5E4JZdBytMm3cftDz/lN9fs/IHYec6GwLQC/0los9cf/YJsSAT+8L2T0fAPtQAoAgQ27kN34EUAYkAtftNC0JACAgBISAEhIAQEAJCQAgIASEwRQRcBDhhTgBa+SkIWAsiH5O5BUIEsHVh/7dif0b40dcL/UEAwGTkf//D1dZ3g/w3BACQf6QDQAhAQcCoCQA3QBIA6AKIdACrCfC+IP57H/SK/hy6DwQ+kXAM6edReRB9kPm0XOuTt5lrIPqmSD4i/TGZCwBOAJB/CgDmDHDCnwQB64PjLlUqDDjFm1tfLQSEgBAQAkJACAgBISAEhIAQEAJ1BLwmwInv5cJ+dACgRSV/t/ozwm95/6wXkIr/UShwBwCEACP/Cw9XW991X3Xxu++rLmb03xwAORUAKQEUAbweAGoCeOTfhwj0VACQ/y17DlabkNdfkn4j/izo50TfCvkxsh/k39MCmv1QE4DrcqE/K/ZnboEiyh+V/y26zyg/19ENYMIABAHsx+MdeVKjA9TvOS0JASEgBISAEBACQkAICAEhIASEwJQQwOgAVx898d2c8w8izxz/3NINgNai/CYEuEjAdWhB/n9y4ZPV1nf9iZN/CADv/sQKIgDEgNIJgFEBcj0AFPqr5fUXufoe2Qfpjwlkfuz2IPnYFpPtm/o2cvhB6ItIPh0Btg4OAm4LJwC3pzYJAOYEOHXu/JEnR7sXL5vS5dXXCgEhIASEgBAQAkJACAgBISAEhIAQyAjsePrkTduPnnjZqvwj8l/Y/20+ov6097Ol7R85/7T9g/xf/M4/qS6GAEAHgIkA7gZgLYBcFNAdARwV4ILdB6stc4eqTbT1M8pvBJ9kHmS/mI8+iN7TIUCSb22IBLY9ovM2JGCK1Odcf0Tvaf33iv/I+a8P/1ff7k4BXxeRf6YKuCvg1LkLRz4rESDfb5oTAkJACAgBISAEhIAQEAJCQAgIgSkisP3Zkze7CFBU9jcxAFH+mLhs+f4nKlT6J/m/CpH/+U9WF9/2J9Ul77yvugTknxNdAGOcACgGiCr/W/YeqjaR1IPQk/gzws9141rut1JrxwhxIIkBXgMgRe5TfQDa973YH7enPP/oV1u2egD5eNx27vxi5dPSqXMXHvrMaN/Bn5ziJdZXCwEhIASEgBAQAkJACAgBISAEhIAQcAS2PX3ybVcfPfFScgBEZN8EABb5s3Ue8U/k/1OvVD81/3B18W0fry4xASBEgHdmEQD1ALa+O0YCeM8nrNgfSb9F+wtif34i/07GTQwo1jF6b8X9rOBfCAYxz/0Z8bd+IQ5gHScr6Jdy91nRPwr7oZq/uQHCATBm3ranWgD1/ufuW6owmaPA+0gE0IMmBISAEBACQkAICAEhIASEgBAQAt1BYMfR194BEYA2f7YQBThftlc9+kp1+cLD1SW/CvIfAgBdAO+EEOCpABgNAAX+kNe/ed+iWfw37T/skf4g/7TtN238yN3P20IUSNH+HHlnP+vLEQBSrj/6ZfKfcvnLyD9If22KnH/2Sfn/ZS0A/36L+seoAUb+Gf3ft1idG9N58+EEuPOTl3fniutMhIAQEAJCQAgIASEgBISAEBACQmBmEYAIsO3oiW/TCUDCz2WKAVc9+nJ1+cIj1SW3fry6FKS/nED833lfhUr/F+w6WCP9iPhvWmiQf1r9U7E+z/MHafeI/2Jlkf1k5/eov69rFABs9knEPyr71yPzMbxfQeRT/4jgmyiQc/09LSAi/uEAQKS/sPz7cIFwAWC9uQFcCIAIcN7C4SeUDjCzj5d+uBAQAkJACAgBISAEhIAQEAJCoFsIXP3Ma7dABDDyf/R4te3ocRsWEC3WXfXIy9Xl+0H+P2bR/0t/NQsAKPSHvP7Ncx7p37j/cIVovxP/bNfP1nyPzpvVn5F9cwWwwn8M8Ze2RUV/RvmLNh8TBN1JfWnlR6R+GYFPdv8QCDi0X/T1nP6S8Pv5WgqBCQAp198Jf5B+EwUQ/a/1sWUXAeQE6NZNr7MRAkJACAgBISAEhIAQEAJCQAjMKgI1EaBIAbjyke9U/2z/o9Wlv/Kx6tJbP24CAAr+XXTHA7mYn5F+j/Qj2t/M84fN36z6EW1nlJ/5/Rb5DxGAhB3bXCSo7+vWfifltr/VAvA+Rv4jSg/bP0g7W6vuj21h3U9CAfuk/cb3sf1ShJ+Rfi8eyBoAZfQ/rfPjvmFOAIkAs/p46XcLASEgBISAEBACQkAICAEhIAQ6hMCBagNFAA75V5J/5Pejiv+WvQ9aBX+L8lukn9F+tHWrP6P8Tv4jkp9s/yTxXA/CHy4AtJbPH3b/Yh/m/rN1wYACAPP4S0cA1nlEP9cCaGw3YYL7+nnxuHQEWG5/5Pp7sb9IEzBRwOeRFuD92YZQYOuXXATQ6AAduul1KkJACAgBISAEhIAQEAJCQAgIgVlFIEQAFAYE+b/81x+zav5bdpekH5F+TiT/das/I/te4M/z+jOhJ9GP1sh90SfqAFj/5jxTBVLefkT5Gdk3G79H5RGxB/H3tj7PEQFA8t0lwKg/RwXw9d4P+fxFzn9U/Icg4Lb/2Ba1Blwo4KgAnhJAZ8B58xIBZvXR0u8WAkJACAgBISAEhIAQEAJCQAh0D4ED1YYrHnnllkv/3Z+9tHnuULURlv79tPeT+OfWovypsn8ZsY95i+ZHxD0ReET4SwGAEXxfZykB5gCIfskBwMg9Wyfh2dbPyDsIfGPeCHqzfxYLTAjwSH1KE0iF/uJY5fJyUSDIPlwCNhJAUzTg+kUVBuzeXa8zEgJCQAgIASEgBISAEBACQkAIzCgCBw5s2Ljw0C2b9h9+yXP63d5vkf8o8lcSf7fuexTf7P7M50+EH4Qd5N6nVM0f+ftYx4h+qujvxL+2T0T33ZrvxzMrvtn7Sezz0H5u088OANr2a7n/Yf3nNh4PYgAIPpa9qJ+3XMf1JPqw/ad+VmMA+7uLwESDYmQA32fx1DkYHWD34mUzeofpZwsBISAEhIAQEAJCQAgIASEgBIRAZxDIIsDLJP4k8GhJ9GstiXyQfRJ4tp63HyJAOAB8W86757Gx3sl+3mbrYO3ntiD/nuPfWM+8f/SNdIAsHkRk6YVhAAAPFklEQVTftB5CQRB+tkH+3b7v23I9ACf4Puyfiw8UA2xdFBSkYBCkvzp336GYzA1w6px9hz8jEaAzd7xORAgIASEgBISAEBACQkAICAEhMMMIhAiwcf/hl0n+jfAH0WeOP9clgh95/VzPtrbdRASmDJDsZ2GBfbEvCH89pz8Ie4gBy7flfczaH9F4jgjgba4LYOTfbP7+PU76I/efdv7Ynog+hIJiG8WAtG8UB1xO/iEC5HQAEwHuOnLJDN9l+ulCQAgIASEgBISAEBACQkAICAEh0BUENs0ffsfGhaXvMTpfEwNo6x8nChTbbN+w+IPQew2AgvDbUIF0BzCaz8g72rD5R+E+j9gX68rtFoHntrwvxAS3+y8/ruf3h9U/9WNef5EKAPKe3AF+vLRcfG9B8qtz5wrSP7foy2hdCHAnwMIjW7tyvXUeQkAICAEhIASEgBAQAkJACAgBITDDCGQRIIboY5E+DtmXCvVhKD8S+xjWj9tMAGjuTxdA3o9Rf0bqPcLvw/SZEGDWfYgEUeyPyxalD/HA3AHFfBHhL4/rOfpBxlMBvxAKjOwHyWfUvuhT25fbmy2JvokAIQQkQSALA54OcN+FM3yL6acLASEgBISAEBACQkAICAEhIASEQFcQ2HTn4bdtXFj6/vmI1pPMF60X9wvSH+u9Ly3+Ttqd4OdjpGWz+2dSb8S/JPmcj37cD6JAmgfRD/KPltvSuuIYFBO8XzgFYn/bhr6RfsBj5fUuGmAZQoCvj9oAFAFI/rFskX+2h7ILAGJACAISAbpyp+s8hIAQEAJCQAgIASEgBISAEBACQmC0af+RmzcuLP3A0gDMBZDt/B75z9X+kcef1o3tGxF6s85DJPDcfhT189x9tiT1sRzpBtYnCPryfXJfI/9R3A/zVpyPlf5ThX7vb7b8OJ9cxK8YFcAEgtzXRgRIxwgnQSL7jPiT+If9PwkEIP/Ftn2LlUQAPWRCQAgIASEgBISAEBACQkAICAEh0BkENs0v3rRxYemHzeH8EIXPhD/SADgiQKQFcB+v5A8i7VH2XOgPZL/I0Y/tINrch60R+yDrKVLP5SjSx+NzO/L1bb4s0lcQ/jKf3+eLnH/m/rMFkS+P07T2W3S/FAWy5d+IP0YFKPvEsg8RqHSAztzwOhEhIASEgBAQAkJACAgBISAEhMAsI0ARwJ0AS5ESEKQ/iv/ZtjHztOt768P0keBbiyH80sQ8/iwAmEDA7RAGguznKv8eoSfRtxZReiPrbtPnNq5Ly3QGGMkP8s6IfbT8/rHkP4kA4/c1h4GRfpJ/tvX+EgFm+enSbxcCQkAICAEhIASEgBAQAkJACHQMgRABfuBD9nnuf43cW2X/nJ/vkXtf9uh9ke/P/H/m06fIf+5Dl4BH9V0YsHnrm49r+fjcn+Q9jusWf8/bT0X8orAf8/mjOr/l9tfmWQCQLY9NQo9ls/QHqbdlEnymA2C5TvbTPrH/OXOLFaaf2Hf4M6PdcgJ07LbX6QgBISAEhIAQEAJCQAgIASEgBGYTARQG3LSw9I/NaD+t/kwJoG2fLfP3uWytRfJzpJ8ugHF9a+vgBggnAFpG/MuofjnfjPqX2ziPFv2sLVMSYn0SBigCNNuS5Kd5pgA02ywIkPyz3bDv8BMjDRE4mw+XfrUQEAJCQAgIASEgBISAEBACQqBrCGx6/+F3pNEBUAfAagEw8u9pAbT7G8FGdD5F7Un4c/8UwU9D+eVoP4+DNkf/c14/q/E7gY9IP8i5VetHP5+384h5EwToPDDSn/vk/SAIZKJuAkCZv2+R/8IBUBMESPhj/2WOAY/4J9I/t1ht2HvIp7nFUxIBunbH63yEgBAQAkJACAgBISAEhIAQEAIzjMDGhaVbNi4sfc+G/SsL9jF6bjn7TuSRq+/5+suXLbJv2702QM7v5zL2jeKBPA5Ie1j+QcwZta/l6NcIOYh4Y8i+WK7vW68bkKL+NQIfln6sw3ekthADTBwo0wKiX/Q9Z+5QhclIP+z/e7Ec7V4TB05t2Lf02OiuI5fM8C2mny4EhIAQEAJCQAgIASEgBISAEBACnUDgwIENG/cfufX8haXvMkrvUXaP8GPe7f5O0H05BIC0zSP5ZuMPIs996i2P5RF9/x4cN8h/aktnwPJ5t/jn/bg/jkchgfOJ/FNIoK2fkX+ub4oAthxiQNkn5hn1Z7sh8v/pAOD6c8wJIBGgE/e6TkIICAEhIASEgBAQAkJACAgBITDzCBw4sOGc+SO3QQQwgm8W/iDrUbUfkXoj8xHFz/MexXd3APfxvinfH6JA7G9k3Y6RiX0i6eYIiAg/c/aD1Fsfm88k390A2RGA7xvrHmAkn0Se0f5yuVxXznPIP7SJ/EekH5b/sP2f4xH/7ACIbbH+1Ib5w4/KCTDzT5oAEAJCQAgIASEgBISAEBACQkAIdAABOAEgAswvvewR9Zzvb5F6i+zndZbLH3n3TuoZkS/7MNLvEf503JTDzxz/Ikc/8vUtgs/cfRMDvA+O4fn9zTYLAUbUSxLPeUb9yxaknsvlPEUDtLY+k363/mfyv2Evcv/LydMC4AJI6+cW3zARYPfiZR242joFISAEhIAQEAJCQAgIASEgBISAEJhpBAoRwPP1Ed33SL1H/LMLAMvmFmAV/0ZFf9se+7qAkCP+Tu5B2CNiH8dK/RoOAVsffUDGUz/u16wLQEJP4m+R+xzBZyQ/t6wHALJf9EvHYbG/UgTwgn+F1d+j/5EKYLUB6BCwWgF2DIkAM/2A6ccLASEgBISAEBACQkAICAEhIAS6hABEgIXD7zInQLLteySfpJ+F+6wlIZ8P27+RcqYAOFlPtvyCxKd1sX8i9mH5N5EgHTsq+ZsTwOdtO90ARvALFwGJP9sU2Y+Cfli/LMJf5PuX2/fVyb9Z/knsEfVHEUCL9Ls44PO+j0X/a7UBJAJ06VbXuQgBISAEhIAQEAJCQAgIASEgBIQAagKECMDK/8kBkGoBRF5/1AhIowOAtHMKMm/kvhalz3Z9y9svCDyJf7mPH6/YpzhuiuIbaS8JflHd34SAYpsJAsVyuW+xjVX+U2tV/kH0D1nFfxT8cweAr7NlrEv9OCJAfZ8NSAfYt/jwSOkAetaEgBAQAkJACAgBISAEhIAQEAJCYOoI2OgAS+9p1gRILgDa78e2zNd354Dn7Ge7v0X/i2g+tnt9gJwm4H3KPH+6AMJVQNGAOfqldd9IfAzZx35cVy5znQkE9VoAtPbXIv6M5tMBsGILVwDFgagVkPr6tg1zh97YMLf4sAoDTv1O1wkIASEgBISAEBACQkAICAEhIASEwIgiAIYItLx8J9+YN2cAyH8tzx/En5F630Zrf2oZvWcb+f61iH/aBgEgHy9F+2skPiL5tq6I+lMQKMk990vrmO/PY2CZxB2F/Jy8W0Tfivz5Oqvsj6r/UfgvF/tD9D9qA9h2LwbIFAFLF9iLdQ9G6sAhdwLcdeQS3W1CQAgIASEgBISAEBACQkAICAEhIASmi0AhAnjufxGtD6t/ScxLC39az2r+JOBoQezL9cW8Vfpn33AHpGNhfUngMV9O3F6uW+N8svpbXn+K1HuO/+nWGalvkP1inQsEsR3kPwsAEAIkAkz3Dte3CwEhIASEgBAQAkJACAgBISAEhEBCgIUBF5a+axF/Rv0TSUeU3u377gAIu78JBMV6pgukvjlVwPa3UQFQQ4D7+Hyd/BdWfRJ7nkci/+wDcSAEg6Kif15H8YCF/qJ4X7Lv0w3A7V7wr8z793z/cAqkEQByfyP/NfEgRf+rDXOYt2UfHWDhka0Jc80IASEgBISAEBACQkAICAEhIASEgBCYCgJRGPC8+aXvuRMgrPkRuWfUnm2K7heR/bQORB3rV9u3RuxJ6scR+jFEf5kYwP3Y14/nUX8S/zy0nxf0w3Lk8EdEn3Z/RvXry9E/igPiGDXbvx2j4QDIboBTG+YPPzrafd+FU7m++lIhIASEgBAQAkJACAgBISAEhIAQEAIJgRABzp1f+n7O9efwe+4CqK9n/n69NkDuU+5TzvOYJWlntL5okecPF4AJBY02rcexSPrr+4K8JwEgqvc7aXchwOYLKz/EABJ/boMDgPtwnq33CcJP6//p2rlDEgHSzaYZISAEhIAQEAJCQAgIASEgBISAEJguAhAB5o/cdt780vdrVn3a+1PRPi8YSEcAagP4lMk914HAl/NG6FN1f4/U19MASuJfbOc+zdQAW87fC9GAxD8X6KNtP8h/VO0n4bcW66LwH/ZL68q+1qesH4B52v4Z/U/W/3AIFNspArz74JbpXmh9uxAQAkJACAgBISAEhIAQEAJCQAgIgSwC/KMR8zEF/UDouc3muRxkH9vYh22N5Jf2f84zj9/s/UHoE+kPIaAW+Y/of7E/SPu4yQh9RPjT9nHLaV1ZD4BiAN0AQfrN3k+yXzgBrCZAsZ7Lqf+hytIBJALoWRMCQkAICAEhIASEgBAQAkJACAiBLiBw7v4jt543v/SDsQQ+Iv4uAhTRd5LxsjYA1zFyTxLPZSP8hX3f1jM9gG1zuw/pZ/Z/G9qPUX8n6XAA0MY/rjURIIb0Sy4Bs/s30gPoBGAqgFn8CwcAl1OL74UYEG3tPEqR4MFqw77Fh0f3ygnQhXtd5yAEhIAQEAJCQAgIASEgBISAEJh5BCACnDu/9KqLAKze79F/pAhguD9us6H/sM6mQhQg0Wc7VhAgwWek/zTEvzxOiviXpNyj90bsm5Z9EHOLyEdry/VCgGn7sr608pPcc5nWfx6T0X8sr7ztJ3D8fUt/OpITYOafMwEgBISAEBACQkAICAEhIASEgBDoBAIUAYzgMx1gPiz+Vu0/hgVsRv1rkfwmwcdykPwkCBTLJPnsM6Z1K78P5VeL4pP0l9X6QbYby9if7oBzytEAICrYMgk9o/pFZB9RfovuUwQo+lBgKPuYK8D7gvinaY9EgE7c5DoJISAEhIAQEAJCQAgIASEgBISAEHAEIh3gVY/uR/5/Ee03NwAj/yTvpbV/3Hwi/lHhH/uN61euj328yJ+Tf1TlT3n9dARwHdpi3moBGMEHuffIv21PIwCA/LtYkAh+SeSb5L4pAnC53Kcxb+R/z4NZBKAT4K4jm3S/CQEhIASEgBAQAkJACAgBISAE1orA/wcxrTCiuhkqWAAAAABJRU5ErkJggg==;fillColor=#21C0A5;strokeColor=#006658;fontColor=#5C5C5C;" parent="1" vertex="1">
          <mxGeometry x="37" y="250" width="178.4" height="50" as="geometry" />
        </mxCell>
        <mxCell id="hCcCfoWqwZ7aWY5XVPd_-6" value="" style="aspect=fixed;html=1;points=[];align=center;image;fontSize=12;image=img/lib/mscae/Kubernetes.svg;labelBackgroundColor=none;fillColor=#21C0A5;strokeColor=#006658;fontColor=#5C5C5C;" parent="1" vertex="1">
          <mxGeometry x="1051.2" y="40" width="72.92" height="70" as="geometry" />
        </mxCell>
        <mxCell id="AVn70WAmfpdutKoN9BU6-3" style="edgeStyle=orthogonalEdgeStyle;rounded=0;orthogonalLoop=1;jettySize=auto;html=1;strokeColor=#006658;fontColor=#5C5C5C;fillColor=#21C0A5;curved=1;strokeWidth=2;" edge="1" parent="1" source="hCcCfoWqwZ7aWY5XVPd_-8" target="hCcCfoWqwZ7aWY5XVPd_-1">
          <mxGeometry relative="1" as="geometry" />
        </mxCell>
        <mxCell id="AVn70WAmfpdutKoN9BU6-5" value="Publish" style="edgeLabel;html=1;align=center;verticalAlign=middle;resizable=0;points=[];strokeColor=#006658;fontColor=#5C5C5C;fillColor=#21C0A5;labelBackgroundColor=none;fontSize=20;" vertex="1" connectable="0" parent="AVn70WAmfpdutKoN9BU6-3">
          <mxGeometry x="-0.2277" y="-28" relative="1" as="geometry">
            <mxPoint x="60" y="-3" as="offset" />
          </mxGeometry>
        </mxCell>
        <mxCell id="hCcCfoWqwZ7aWY5XVPd_-8" value="" style="shape=image;verticalLabelPosition=bottom;labelBackgroundColor=none;verticalAlign=top;aspect=fixed;imageAspect=0;image=https://beyondjapan.com/cms/wp-content/uploads/2019/03/golang-1.png;fillColor=#21C0A5;strokeColor=#006658;fontColor=#5C5C5C;" parent="1" vertex="1">
          <mxGeometry x="667.76" y="130" width="110" height="110" as="geometry" />
        </mxCell>
        <mxCell id="hCcCfoWqwZ7aWY5XVPd_-12" style="rounded=0;orthogonalLoop=1;jettySize=auto;html=1;labelBackgroundColor=none;strokeColor=#006658;fontColor=default;strokeWidth=2;" parent="1" source="hCcCfoWqwZ7aWY5XVPd_-9" target="9fjUdxymwFP22g2nUxYc-3" edge="1">
          <mxGeometry relative="1" as="geometry">
            <mxPoint x="441.2" y="235" as="targetPoint" />
          </mxGeometry>
        </mxCell>
        <mxCell id="hCcCfoWqwZ7aWY5XVPd_-13" value="&lt;font style=&quot;font-size: 20px&quot;&gt;&amp;nbsp;gRPC web&amp;nbsp;&lt;/font&gt;" style="edgeLabel;html=1;align=center;verticalAlign=middle;resizable=0;points=[];labelBackgroundColor=none;fontColor=#5C5C5C;" parent="hCcCfoWqwZ7aWY5XVPd_-12" vertex="1" connectable="0">
          <mxGeometry x="-0.083" y="3" relative="1" as="geometry">
            <mxPoint x="-12" y="-13" as="offset" />
          </mxGeometry>
        </mxCell>
        <mxCell id="hCcCfoWqwZ7aWY5XVPd_-9" value="" style="verticalLabelPosition=bottom;html=1;verticalAlign=top;align=center;strokeColor=none;fillColor=#21C0A5;shape=mxgraph.azure.computer;pointerEvents=1;labelBackgroundColor=none;fontColor=#5C5C5C;" parent="1" vertex="1">
          <mxGeometry x="71.2" y="130" width="110" height="112.5" as="geometry" />
        </mxCell>
        <mxCell id="hCcCfoWqwZ7aWY5XVPd_-17" value="ingress&lt;br style=&quot;font-size: 16px;&quot;&gt;HTTPS終端" style="shape=callout;whiteSpace=wrap;html=1;perimeter=calloutPerimeter;fontSize=16;fillColor=#fad7ac;strokeColor=#b46504;labelBackgroundColor=none;" parent="1" vertex="1">
          <mxGeometry x="390.97" y="50" width="170" height="80" as="geometry" />
        </mxCell>
        <mxCell id="hCcCfoWqwZ7aWY5XVPd_-20" value="Connect-goで実装" style="shape=callout;whiteSpace=wrap;html=1;perimeter=calloutPerimeter;fontSize=16;fillColor=#fad7ac;strokeColor=#b46504;flipH=0;flipV=0;labelBackgroundColor=none;" parent="1" vertex="1">
          <mxGeometry x="650" y="60" width="170" height="70" as="geometry" />
        </mxCell>
        <mxCell id="hCcCfoWqwZ7aWY5XVPd_-22" value="RedisのStream&lt;br style=&quot;font-size: 16px;&quot;&gt;を利用" style="shape=callout;whiteSpace=wrap;html=1;perimeter=calloutPerimeter;fontSize=16;fillColor=#fad7ac;strokeColor=#b46504;flipH=1;flipV=0;labelBackgroundColor=none;position2=0.18;" parent="1" vertex="1">
          <mxGeometry x="844.76" y="293" width="170" height="81" as="geometry" />
        </mxCell>
        <mxCell id="hCcCfoWqwZ7aWY5XVPd_-26" value="client毎にgoroutineを&lt;br style=&quot;font-size: 16px;&quot;&gt;立ち上げてsubscribe" style="shape=callout;whiteSpace=wrap;html=1;perimeter=calloutPerimeter;fontSize=16;fillColor=#fad7ac;strokeColor=#b46504;flipH=1;flipV=1;labelBackgroundColor=none;" parent="1" vertex="1">
          <mxGeometry x="700" y="374" width="194.76" height="80" as="geometry" />
        </mxCell>
        <mxCell id="hCcCfoWqwZ7aWY5XVPd_-27" value="状態変更&lt;br style=&quot;font-size: 16px;&quot;&gt;リクエスト" style="shape=callout;whiteSpace=wrap;html=1;perimeter=calloutPerimeter;fontSize=16;fillColor=#fad7ac;strokeColor=#b46504;flipH=1;flipV=0;labelBackgroundColor=none;" parent="1" vertex="1">
          <mxGeometry x="870" y="110" width="144.76" height="80" as="geometry" />
        </mxCell>
        <mxCell id="9fjUdxymwFP22g2nUxYc-4" style="edgeStyle=none;rounded=0;orthogonalLoop=1;jettySize=auto;html=1;labelBackgroundColor=none;strokeColor=#006658;fontColor=default;strokeWidth=2;" parent="1" source="9fjUdxymwFP22g2nUxYc-3" target="hCcCfoWqwZ7aWY5XVPd_-8" edge="1">
          <mxGeometry relative="1" as="geometry">
            <mxPoint x="621.2" y="258.68137782561894" as="targetPoint" />
          </mxGeometry>
        </mxCell>
        <mxCell id="9fjUdxymwFP22g2nUxYc-3" value="" style="shape=image;verticalLabelPosition=bottom;labelBackgroundColor=none;verticalAlign=top;aspect=fixed;imageAspect=0;image=https://cdn-ak.f.st-hatena.com/images/fotolife/N/Naotsugu/20201019/20201019221824.png;fillColor=#21C0A5;strokeColor=#006658;fontColor=#5C5C5C;" parent="1" vertex="1">
          <mxGeometry x="380" y="130" width="191.95" height="110" as="geometry" />
        </mxCell>
        <mxCell id="AVn70WAmfpdutKoN9BU6-2" value="" style="shape=image;verticalLabelPosition=bottom;labelBackgroundColor=default;verticalAlign=top;aspect=fixed;imageAspect=0;image=data:image/png,iVBORw0KGgoAAAANSUhEUgAAAXYAAACACAYAAAAf4kLVAAAMP2lDQ1BJQ0MgUHJvZmlsZQAASImVVwdYU8kWnltSIQQIICAl9CaISAkgJYQWQHoRbIQkQCgxBoKKHV1UcO0iAjZ0VUSxA2JH7CyKvS8WFJR1sWBX3qSArvvK9+b75s5//znznzPnztx7BwD6CZ5EkoNqApArzpfGhgQwxySnMEldgAzogAo8gCWPnydhR0dHAFgG2r+XdzcAIm+vOsq1/tn/X4uWQJjHBwCJhjhNkMfPhfgAAHgVXyLNB4Ao5y2m5EvkGFagI4UBQrxQjjOUuEqO05R4j8ImPpYDcQsAZHUeT5oBgMZlyDML+BlQQ6MXYmexQCQGgM6E2Dc3d5IA4lSIbaGNBGK5PivtB52Mv2mmDWryeBmDWDkXRSEHivIkObxp/2c6/nfJzZEN+LCGVT1TGhornzPM263sSeFyrA5xjzgtMgpibYg/iAQKe4hRaqYsNEFpjxrx8zgwZ0APYmcBLzAcYiOIg8U5kREqPi1dFMyFGK4QdKoonxsPsT7EC4V5QXEqm43SSbEqX2h9upTDVvHneFKFX7mvB7LsBLZK/3WmkKvSxzQKM+OTIKZCbFkgSoyEWANip7zsuHCVzajCTE7kgI1UFiuP3xLiWKE4JECpjxWkS4NjVfYluXkD88U2Zoq4kSq8Lz8zPlSZH6yFz1PED+eCXRaK2QkDOsK8MREDcxEIA4OUc8e6hOKEOJXOB0l+QKxyLE6V5ESr7HFzYU6InDeH2DWvIE41Fk/MhwtSqY+nS/Kj45Vx4oVZvLBoZTz4MhABOCAQMIEM1jQwCWQBUVtPQw+8U/YEAx6QggwgBI4qZmBEkqJHDK9xoBD8CZEQ5A2OC1D0CkEB5L8OssqrI0hX9BYoRmSDpxDngnCQA+9lilHiQW+J4AlkRP/wzoOVD+PNgVXe/+/5AfY7w4ZMhIqRDXhk0gcsiUHEQGIoMZhohxvivrg3HgGv/rC64Czcc2Ae3+0JTwnthEeE64QOwu2JoiLpT1GOBh1QP1iVi7Qfc4FbQ003PAD3gepQGdfDDYEj7gr9sHE/6NkNshxV3PKsMH/S/tsMfngaKjuKMwWlDKH4U2x/Hqlhr+E2qCLP9Y/5UcaaNphvzmDPz/45P2RfANvwny2xhdh+7Cx2EjuPHcEaABM7jjVirdhROR5cXU8Uq2vAW6winmyoI/qHv4EnK89knnOtc7fzF2VfvnCq/B0NOJMk06SijMx8Jht+EYRMrpjvNIzp4uziCoD8+6J8fb2JUXw3EL3W79y8PwDwOd7f33/4Oxd2HIC9HnD7H/rO2bLgp0MNgHOH+DJpgZLD5RcCfEvQ4U4zACbAAtjC+bgAd+AN/EEQCANRIB4kgwkw+ky4zqVgCpgB5oJiUAqWgdWgAmwAm8F2sAvsAw3gCDgJzoCL4DK4Du7C1dMJXoBe8A58RhCEhNAQBmKAmCJWiAPigrAQXyQIiUBikWQkFclAxIgMmYHMQ0qRFUgFsgmpQfYih5CTyHmkHbmNPES6kdfIJxRD1VEd1Bi1RoejLJSNhqPx6Hg0A52MFqLz0SVoOVqN7kTr0ZPoRfQ62oG+QPswgKlhepgZ5oixMA4WhaVg6ZgUm4WVYGVYNVaHNcHnfBXrwHqwjzgRZ+BM3BGu4FA8Aefjk/FZ+GK8At+O1+Mt+FX8Id6LfyPQCEYEB4IXgUsYQ8ggTCEUE8oIWwkHCafhXuokvCMSiXpEG6IH3IvJxCzidOJi4jribuIJYjvxMbGPRCIZkBxIPqQoEo+UTyomrSXtJB0nXSF1kj6Q1cimZBdyMDmFLCYXkcvIO8jHyFfIz8ifKZoUK4oXJYoioEyjLKVsoTRRLlE6KZ+pWlQbqg81nppFnUstp9ZRT1PvUd+oqamZq3mqxaiJ1OaolavtUTun9lDto7q2ur06R32cukx9ifo29RPqt9Xf0Gg0a5o/LYWWT1tCq6Gdoj2gfdBgaDhpcDUEGrM1KjXqNa5ovKRT6FZ0Nn0CvZBeRt9Pv0Tv0aRoWmtyNHmaszQrNQ9p3tTs02JojdCK0srVWqy1Q+u8Vpc2SdtaO0hboD1fe7P2Ke3HDIxhweAw+Ix5jC2M04xOHaKOjQ5XJ0unVGeXTptOr662rqtuou5U3Urdo7odepietR5XL0dvqd4+vRt6n4YYD2EPEQ5ZNKRuyJUh7/WH6vvrC/VL9HfrX9f/ZMA0CDLINlhu0GBw3xA3tDeMMZxiuN7wtGHPUJ2h3kP5Q0uG7ht6xwg1sjeKNZputNmo1ajP2MQ4xFhivNb4lHGPiZ6Jv0mWySqTYybdpgxTX1OR6SrT46bPmbpMNjOHWc5sYfaaGZmFmsnMNpm1mX02tzFPMC8y321+34JqwbJIt1hl0WzRa2lqOdpyhmWt5R0rihXLKtNqjdVZq/fWNtZJ1gusG6y7bPRtuDaFNrU292xptn62k22rba/ZEe1Ydtl26+wu26P2bvaZ9pX2lxxQB3cHkcM6h/ZhhGGew8TDqofddFR3ZDsWONY6PnTSc4pwKnJqcHo53HJ4yvDlw88O/+bs5pzjvMX57gjtEWEjikY0jXjtYu/Cd6l0uTaSNjJ45OyRjSNfuTq4Cl3Xu95yY7iNdlvg1uz21d3DXepe597tYemR6lHlcZOlw4pmLWad8yR4BnjO9jzi+dHL3Svfa5/XX96O3tneO7y7RtmMEo7aMuqxj7kPz2eTT4cv0zfVd6Nvh5+ZH8+v2u+Rv4W/wH+r/zO2HTuLvZP9MsA5QBpwMOA9x4szk3MiEAsMCSwJbAvSDkoIqgh6EGwenBFcG9wb4hYyPeREKCE0PHR56E2uMZfPreH2hnmEzQxrCVcPjwuvCH8UYR8hjWgajY4OG71y9L1Iq0hxZEMUiOJGrYy6H20TPTn6cAwxJjqmMuZp7IjYGbFn4xhxE+N2xL2LD4hfGn83wTZBltCcSE8cl1iT+D4pMGlFUseY4WNmjrmYbJgsSm5MIaUkpmxN6RsbNHb12M5xbuOKx90YbzN+6vjzEwwn5Ew4OpE+kTdxfyohNSl1R+oXXhSvmteXxk2rSuvlc/hr+C8E/oJVgm6hj3CF8Fm6T/qK9K4Mn4yVGd2ZfpllmT0ijqhC9CorNGtD1vvsqOxt2f05STm7c8m5qbmHxNribHHLJJNJUye1SxwkxZKOyV6TV0/ulYZLt+YheePzGvN14I98q8xW9ovsYYFvQWXBhymJU/ZP1Zoqnto6zX7aomnPCoMLf5uOT+dPb55hNmPujIcz2TM3zUJmpc1qnm0xe/7szjkhc7bPpc7Nnvt7kXPRiqK385LmNc03nj9n/uNfQn6pLdYolhbfXOC9YMNCfKFoYduikYvWLvpWIii5UOpcWlb6ZTF/8YVfR/xa/mv/kvQlbUvdl65fRlwmXnZjud/y7Su0VhSueLxy9Mr6VcxVJaverp64+nyZa9mGNdQ1sjUd5RHljWst1y5b+6Uis+J6ZUDl7iqjqkVV79cJ1l1Z77++boPxhtINnzaKNt7aFLKpvtq6umwzcXPB5qdbErec/Y31W81Ww62lW79uE2/r2B67vaXGo6Zmh9GOpbVoray2e+e4nZd3Be5qrHOs27Rbb3fpHrBHtuf53tS9N/aF72vez9pfd8DqQNVBxsGSeqR+Wn1vQ2ZDR2NyY/uhsEPNTd5NBw87Hd52xOxI5VHdo0uPUY/NP9Z/vPB43wnJiZ6TGScfN09svntqzKlrLTEtbafDT587E3zm1Fn22ePnfM4dOe91/tAF1oWGi+4X61vdWg/+7vb7wTb3tvpLHpcaL3tebmof1X7sit+Vk1cDr565xr128Xrk9fYbCTdu3Rx3s+OW4FbX7Zzbr+4U3Pl8d849wr2S+5r3yx4YPaj+w+6P3R3uHUcfBj5sfRT36O5j/uMXT/KefOmc/5T2tOyZ6bOaLpeuI93B3Zefj33e+ULy4nNP8Z9af1a9tH154C//v1p7x/R2vpK+6n+9+I3Bm21vXd8290X3PXiX++7z+5IPBh+2f2R9PPsp6dOzz1O+kL6Uf7X72vQt/Nu9/tz+fglPylP8CmCwounpALzeBgAtGQAGPJ9RxyrPf4qCKM+sCgT+E1aeERXFHYA6+P8e0wP/bm4CsGcLPH5Bffo4AKJpAMR7AnTkyME6cFZTnCvlhQjPARuDvqblpoF/U5Rnzh/i/rkFclVX8HP7LxrdfH3hgNYQAAAAimVYSWZNTQAqAAAACAAEARoABQAAAAEAAAA+ARsABQAAAAEAAABGASgAAwAAAAEAAgAAh2kABAAAAAEAAABOAAAAAAAAAJAAAAABAAAAkAAAAAEAA5KGAAcAAAASAAAAeKACAAQAAAABAAABdqADAAQAAAABAAAAgAAAAABBU0NJSQAAAFNjcmVlbnNob3S7y5+EAAAACXBIWXMAABYlAAAWJQFJUiTwAAAB1mlUWHRYTUw6Y29tLmFkb2JlLnhtcAAAAAAAPHg6eG1wbWV0YSB4bWxuczp4PSJhZG9iZTpuczptZXRhLyIgeDp4bXB0az0iWE1QIENvcmUgNi4wLjAiPgogICA8cmRmOlJERiB4bWxuczpyZGY9Imh0dHA6Ly93d3cudzMub3JnLzE5OTkvMDIvMjItcmRmLXN5bnRheC1ucyMiPgogICAgICA8cmRmOkRlc2NyaXB0aW9uIHJkZjphYm91dD0iIgogICAgICAgICAgICB4bWxuczpleGlmPSJodHRwOi8vbnMuYWRvYmUuY29tL2V4aWYvMS4wLyI+CiAgICAgICAgIDxleGlmOlBpeGVsWURpbWVuc2lvbj4xMjg8L2V4aWY6UGl4ZWxZRGltZW5zaW9uPgogICAgICAgICA8ZXhpZjpQaXhlbFhEaW1lbnNpb24+Mzc0PC9leGlmOlBpeGVsWERpbWVuc2lvbj4KICAgICAgICAgPGV4aWY6VXNlckNvbW1lbnQ+U2NyZWVuc2hvdDwvZXhpZjpVc2VyQ29tbWVudD4KICAgICAgPC9yZGY6RGVzY3JpcHRpb24+CiAgIDwvcmRmOlJERj4KPC94OnhtcG1ldGE+CvldllYAAAAcaURPVAAAAAIAAAAAAAAAQAAAACgAAABAAAAAQAAACz7Cv03PAAALCklEQVR4AeydXYhVVRTHzxRmOkHFjA+S5ZMIPhQMmAqZSdGDBUXko/aBUSTYB2UMBBkFgkWFUVEUFREEZtKDPlRgMYJaVORLRS9pEyP4VQ/TKKKT6173dbNnrf19zzn33P9+mHu+9lp7/fY5/7PvOvueGZi+UAoUEAABEACBxhAYgLA3pi8RCAiAAAi0CEDYcSKAAAiAQMMIQNgb1qEIBwRAAAQg7DgHQAAEQKBhBCDsDetQhAMCIAACEHacAyAAAiDQMAIQ9oZ1KMIBARAAAQg7zgEQAAEQaBgBCHvDOhThgAAIgACEHecACIAACDSMAIS9YR2KcEAABEAAwo5zAARAAAQaRgDCbnTo36fb70Qbn3K/G23BnIHiuisHDAtYBQEQAIFqCfStsCsBP3jqfKsHxs+kd8Syq9siD8FPZwkLIAAC8QT6Rth1Ic8h4j7IldAvu/Yyn8NxDAiAAAhkIdB4YSdBp1F5WWIu9QpEXiKD7SAAArkJNFLY6yLmUmeRyGMUL9HBdhAAgVQCjRL2ugu62VkQeJMI1kEABHIQaISw95qgmx0HgTeJYB0EQCCFQM8LO+XPD/7rnproC+nsH/91Dp03e6D49ef2+r3rhzvb6UZCJXfeHgLfQYwFEACBBAI9K+wkrjuPtqcqxsavRPzgpydbJsb2ToqmJg4vEffRDjVtMsdNBgJvRY2dIAACDgI9Kewpo3QScx8hN7m5hN08PlXoIe4mUayDAAj4EugpYY/NpSsxt43IXcBChV23F3sjWjC7aM2ewa9bdZpYBgEQcBHoGWGPEcccgq4Apgi7shE7isfoXRHEJwiAgA+BnhD2UFHPKegKYg5hV7ZiBB7irujhEwRAwEWg9sIeIuqUuvhsdLxISblIwHIKu/IREhvVgbgrcvgEARCwEai1sIcI3zVHporn1h2xxeq97847BlvHTp1rVzl9frp4572Fnfq5c94hcULcO92ABRAAAYFAbYU9ROz2bUkbpa9cPVjc/fBQcezMdDFr0VwB1czN9A1BFXpFQIrg+8YLYVfE8QkCICARqKWw+4oc5dJf3fCXFJu4nUbkp85OF6vWDQUJuWhQ25E6k8UWO0RdA41FEAABkUDthN0mbHoUE1+eKD567bi+ybmsRub/3DDHeWyOA2JFnmMAUc/RI7ABAv1BoFbCzgka1w2hor501dzi/g3DRVmCbrY5RuB1FhB1kyjWQQAEbARqI+y+rwgIEXVKudz+wFBlgm6CDxV4EncqeMWvSRLrIAACNgK1Efbtf16cgmJpbYioP/j0cDH/niGLtep2YQReHXt4BoF+IFALYdfTDhJ0X1HPnUenUbYqOd/mSHbvm3+5Mo1PEAABEMhGoHJhzynqKaN0Elo1XdHnn1GrV/eqdEmM6IemZrL1OgyBAAg0mkDlwu5KwfiO1GNFPVdaRBf6UJHP1YZGn6kIDgRAwJtApcLuGq3TiHbj8t+dwYSKOgkplW49lIx5CyXE3dnNOAAEQMCTQGXC7hJ1av/U7hPFG9vsc9VDRJ1eO7D+1qs80aQfFiLwEPZ03rAAAiDQJlBbYfdJwYSIurK3e9fCYmSk/S6Ysk4C100Mol5WT8APCPQHgUqE3SV0PimYJzcPF3Puck9nNF/hS3PbP/7g0gu9yupmafQOUS+rB+AHBPqHQC2FXY2upW6gKY23bFkg7e5sl+y88Py84rFH5nWOK3Phi4lznX+CDVEvkzx8gUD/EChd2F2jdUmM9S5568Dijjjq2/Vll50qUjKqfcSASrce3io/+AQBEOhPArUT9h9fGi+++mZS7A2fvLpL1Ml4VSkZMTDsAAEQAIFMBEoXdtu8dZcg++TVXTZ0blWO2vV2NH35+x8OtUK8eemNTQ8V8YFALQiUKuyuNMwVX58sXnz5mAjGlYIJeT87RF3EnLSDRPzA/l+KsbGfij17DsywtWbN8ta2lStHiuUrbiog9jMQYQMIJBMoVdj1B4dmy13/2s5ntL51lfvHTJSCeWLjcOlTHs14m7a+ffsnrZBGR98OCo2E/tnND0Hgg6jhYBCwEyhV2FPSMK7Rus+PmaqcDWPvht7eu3btU+zoPCQqCHwILRwbQ0ClBPW6Tf3GWJqwu9IwttG2a7T+2+fHi11vntD7a8YyRH0GkuQNdKGsvu3RZDu6ga1bHy82bVqnb8IyCCQToG+U5rdJGkzs2PF6su06GihN2KscrUPU85963IUieVF5ddrP5d3Nenu/fRepGRMK1pMIcOcrhD0JabtyrLC7RuuuWTCY1pih8wwTrpE6XTD0cFQaeVP9V7Z9aBX5ycn9hlesgkA8AQh7PDuxZjfTMLYUDjUIs1/EboneYcuph6RSbALf5NFUNHhUjCYAYY9GJ1e0CbtrNoztoakrt44UjNwnsXu4C0TZikmh2Eb/ITcJ1QZ8ggBHgDtvmzx4KCXHbpvmaEuluN4J45oJM3F4CdfH2JZAYHBwBVs7RtSVIZu4p6ZkyHYVMx/K9luWv7L86OdGjv6DsCuiGT9t+fV9W8aLsb38KwRcrw+wpWEwWs/YgRdN0UXNzYLJMbLmLjxyG3LDoPZR7p4K95DWlftvVWT+UOrJLOZsCuWb80t8qEjPHEzbypa+3XxmoR8j+fT1p/sxl5Uf04diScfn8KP8Kn+0bvqkbb4sdTuSLdpOcZilCb+r6PqInV5Xu/No+6VXJkBat4nzM+9fX8xaNJerVrh+ZYrROostaSOXW8/1dZYuxNibhrqIOSGQAg65GXHfUtQ3CandnF9fn5xNnbN0E0zxadbl+to8Rl/3jU2voy+HxKTq2XxyDFU912fIYMJlq6r9lQq7673rtvy6LQ2DmTDdOZ04gbNdXKGtoIubXkWgF9foKeUCJj8+FzEXNwl7rG91U9Dj1Jc5u0rYcwug7peWybdrxpJZR1+POR9CbyI+/jiGej3bss85Yatfh31dF3bbg1PXqHv0u8UiI9tIH2kYEVv0DulCqfIiiBE5DoBLjCRh57Zz9s1tSqTN7WqdY011KB1j/shG1XF9umKk+pxfl11uf8g5kSLqyjcXW0osIe1XbajbZ6XCnvLg1CbsmOKY/zTjRNQlUPlbccmi7cJVIkgvGaNCLyWjYhNF28XMCTj50FM/tE6FxJeK9BK01s4Lf2z+uNhMf2RHxalsuny6vilwcep+FE/aZnvRG+23xUf7qXDnVHvPpdjIp+o/2if1IeePOKpCNsy6xI++EZolx8Na02bZ67UVdtcPk2zCjvx6/tOIG1nRhWE+RMzvmbfItYeO5EZvugVJTGyxSIKn7HKiQvtIWKS0hs0fJ+zKF33aYpTio3pSO2mfVM/my1bPFp+rni39JrUzxp+rDrWzV0tthd02I8aVwoGw5z8dOSF1XfT5W9G2KF3cvu2R6kvCZxN2qY4eu1RfGkHbhN0nRqm+JGTS8T6+KM5QnlSHYyK1j47XS4w/ro6vP913ryx3Xdhj57DHCjsenHbn1KuTsHOi4CtCig4Xj3Shc/7Ijo+o03GcqNjqS0IrtY9smYWLj47hbiZc+7rJk/NHbQvxycVn48P5tB1P7enlUqmw22a22ITdlpuHsHfndOTEzVfYcrZIEr0QUaD2SHa4mLjYyQYnkrSdK5wNzhfVldoWEqNkg2tzSNu42KQ2S8LJiXJIbMqf+s2CapM5119tp08Iu04jw7JtxA5hzwC4JBPcxR96MeZoKneBkl1OsFz+uJg4seWOC409xIYkyiE+JRsmp17l6epbcz8Xp3TjMev24vr/AAAA///L5efbAAAMLElEQVTtnV+oZVUdx9dMRI73pXCEhkanlwh6KLiizkCDCdKDPmSG0ItRUBQGU4oaA/2xPzBkYTWQKCVp0pOU9DA+hGAywcxVHEhQiF5Sr43gmPkwc5NwpvneO79pn3V+a63fWnvtvde597se7jpn/fn9fuuzzv7uddfeZ59t584nN2D6w8l33eo7uoOnvvuqe+6ZM2rlF+/c6XZ95jK17r9/P+N++uVX1bpP37DkHn14j1rHwnICS0v75jofOnS7O3DgtrnyIQtuvfUO9+STx2dc3HjjXvf44z+bKbO8sdqqMXbNV4jfs8+94K7/1FfnhnD69LG5sliBFrdv4/Dhx9zBgw/MmKnJ8+k/P+SuufrjF+3XGttFg8YXNcdpdDlps21TCvvJP77pHrn/lAqgVNhh7OTLH1NtsrCcQI4wlXtJ96wZh2ZLEzVNIH3BSkWu+WpV2DEWcMhN/gkX/X1OUwnsVH5zGdZqP7iwr7x11q28rf9TEBP2q6+71N3wgyuC4zx03d+CdRT2IJriihxhKnZi6KiJbEggU+asB7vm0xeslK8cfrVWtVrclhV7aiw59f7cWJnn+LC0ncqvJbYh2kwq7O9/Zc1967ZX1HHtv37JffLe3WodCmPCfuSJPW55eSnYlxX5BFo5MDSxyhVZGb1VQGv4bFXYtbiET42cwl6DYr6NSYU9tVd+1XfCwv78D1fdn546rY6Ywq5i6VWoCTsM+ivAXk4MnWuIrLixjqmGT01AfdGTuKwnHGkfyrW4/fnS4grZKyn3x6gx17a/SnzF+kzlNxbTkHWDC/tr/znnfv/6WXUMMWFHh4PPfFTth8LYhVdeQA1i61WhCYV/4PZxgIPPT3v3fWLm4psmRKUxWA92bdy5/yXkxD21sIMnuNdK3YunVua1fIudqfyK/7HzSYUdg41tqdz16yvcez9yqcokto2DDtxnV7H1KswRpxJHFgHVYihd8VltWeJKjVfzFTohjSnsYwterbGlePv1Y4/T9z/2+8GFHQM6/I93g+P6y72r7ujT+pbKjx+70v37yh3BvrGTArdjgtiKK7SDA8ZCApXjKHTA+ytjTSBLhV0TbG0sWjs/rtRYtbg1X7ATYuFvo6R8anH7NjRfpTxT8cTGlsvT4qvbRvvsDjnOru8pXo8i7LF72WPCnrqAyu2Y8T8ymlggCl8wciPThE878DQhKvWvjUUTW61drhBp49N8YSy1xqjF7c9TyFfu+HLmW2OhzXXKJsTaT6HvVVDYfVIV3seEvc8+e2o75nvfvtx97SuXVxgBTQgB7QBBXcmBKTa1Ax11IXHRBCskkuLDz0Pj8IUP/TR/odh8P/JeG2Mo5pDYarGJfS3X4tZs5MSm+ZEyEVr/uojUS675Q50Wm/Txc23+QjzRV2uP8hyfaL8oaZQVe+wC6msvnnG/vV3/Fikg9tmOQX/utYNC3aQJBjxA3O++50szFztTnkMHeexEEepjFduQcIaEQRuv1ZeMX4s55C8UX64IaXFrNkL+csaoCWdoDkP+Qu2FYTfXxhbiiX5afCjXeKB80dPkwg6AfbZjYl9ygm2u2kGhbgodJOLFIvApGzFRCQkD/Mf6oT7WN3SQayKS8gNf3dSysCNOLT6UW8YZYhoT2pC/WB/EA18/ue83c4+VQF1o/qSf9piGlD/0XcQ0irADTGw7JrWlErvtEbZjF1FRT3EHhbopJczwBoFH2r9/eT3Hn6NHT6gH5cUG519YxCTmXztYY4IA31ofiWkrCHtInIWNtr2SYpqaR42rMMd8dH3C1/Fjf517rk23fWh/XdqE/MlCBPaRUnbEXst5E8Ke2mdPbcekTgyYAIp7/Y9hTFxLvcUE1rcZWvV12+Gg1Z5h0m2T8qkJQkq0uvbxWos15DcksrEVqe8P77W4YzYs8ykn675MEZ/FH9qlEmKyPATO6i/GKBVLK/WjCXtsnx0wYtsx+MJR7Fuoqf4CewpxP3HitHv2+TOb9iJuSISEeU4eErqYDevBGrJh8akJ5GYUdjDqyxM2LEzRDqmvP6uob3jTT3ZSJ3lO/NKntXw0YcfAY/ezj7FqRwxjivuDv3rDff9Hb8DtqH7XHY74J/UveSqUvgdSqThY/W4lYcdclfJEXytTtJVUujjIFXX4s3xWS8YgY2klH1XYY/vsABJ7/otl1Z66kCrQxxD3rqiP6Vd8TZVbDhzEhoMSe+819zMtggS/uXfubDVhl88OeCL5z2uXeslrzWWOv9w5lFglh6/Q9Z6SE4bYbSUfVdhT2zGpvfLYM9oFqFXc0X4IgcfWy02ffVnCmcuH8DnnpJECiLwkXJjqXgyT8iFy8SsXw+BXUve5JVLGPE0ATIWntB5yPn1/ModDzJ98XjCuIewLrzHzUYUdA0ut2lN3uKQupMJHjrijfQ2xhaD/4pengk+chB9JNfyJLeYkQAIk4BMYXdhTq/aUKFu2ZDDIlB0fBN5DcJGs31bNEfN1wxf+8OmTXRp8TQIkUJvA6MKOAaRW7bE7ZNDfsiWDdmtH3nQ/v0//6T3UpxIEGGnf3o0nTB47/v/fZw09Cz5lk6v1FCHWkwAJ9CUwibCnVu2pO2QwaKu4l6zc+0IN9aeoh8iwnARIoCaBSYQdA0it2i2r7djz2ruQcKJY+d2/go8H7rYd4jVW/t/4+k7+XN8QcGmTBEhgjsBkwp5atSPS2O2PMhKruKP9FKt3rtJlppiTAAmMRWAyYccAU6t2y5YM7FjF/XMf3O4+dMk2p91jDjs1U66gb/ZvqNZkS1skQAJxApMKu2XVbl1lp26D3P0+527Z9Z4ZGhB4XBAtvRA6Y+z8G2y54EKr9a4a6d+99z33hCA2mJMACZCAEJhU2BHEyltn3crb5yQeNbfst6Nj7IKqrNY1B7JaLhF52T+H3eXljbtoNB+hMu2/B4p7iBbLSYAELAQmF3YEmdqSQZvULZBog/TNe3a6HTddtvHmwl9ttT7TQHkjYt+tuuaq2R/WLhHyrj1N1KWe4i4kmJMACeQSaELYLVsyGJhV3PFbqZ8/tNutvrOBI7ZazwVWoz1OGpZvqVLca9CmDRLYegSaEHZgry3usImtmZu/sNNd+4HteNtEiq3S/QCxzfPow3v8Yr4nARIggSiBZoQdUVr229HOunJHW6QWVr45go6YKeqgwEQCJFBCoClhxwAs++1oZ71bBm0lTSHw1m0XiRH5FHF2/fM1CZDAYhNoTtiBc0hxh30IJy6E9r34CVtaKhFzsUNRFxLMSYAESgk0KewYzNDiLsAgpEi5955Lf+QQciRcEEUquS9ebpsc6mSzHhj/kAAJbAkCzQo76FvFHW1LtmbQz08QWHmaI+r8WxxRht8wlSc9log4bHQT99O7NPiaBEigL4GmhR2Dm0Lc+0LN6X/kiT2DbQnlxMG2JEACm4dA88IO1Na7ZWRaaq3exd4QOffSh6BKmyRAAiCwEMKOQHPFHX1aFHgKOmaGiQRIYEgCCyPsgFAi7ugHgf/nC2tFFzXRv2/ihdG+BNmfBEggh8BCCTsGZv2GqgYBjwE+9dKae+T+8p/L0+xqZRBzJP7AhkaHZSRAAkMSWDhhFxilq3fpjxwreaQaQt8VctjkbYugwEQCJDAFgYUVdsDC6n117Vzysb9WsLKil/Yvnr+t8ZLt29bf7ph9lPv6LZHdWyEp5EKNOQmQwNQEFlrYBV6N1bvYCuUHPuwpe6ghy0mABEhgYgKbQtiF4ZACT2EXysxJgARaJ7CphF1gDyHwFHahy5wESKB1AptS2AU6BB4p9dN70j6WU9hjdFhHAiTQEoFNLexd0H1FnsLepcnXJEACLRPYMsLenQQR+fW7ai78fF63XntNYdeosIwESKBFAltS2LWJkFsnpQ7vu+mWXbwrpsuDr0mABNolQGFvd24YGQmQAAkUEaCwF2FjJxIgARJolwCFvd25YWQkQAIkUESAwl6EjZ1IgARIoF0CFPZ254aRkQAJkEARAQp7ETZ2IgESIIF2CVDY250bRkYCJEACRQQo7EXY2IkESIAE2iVAYW93bhgZCZAACRQRoLAXYWMnEiABEmiXAIW93blhZCRAAiRQRIDCXoSNnUiABEigXQIU9nbnhpGRAAmQQBEBCnsRNnYiARIggXYJUNjbnRtGRgIkQAJFBP4HoxR/Ypa/pqYAAAAASUVORK5CYII=;" vertex="1" parent="1">
          <mxGeometry x="667.76" y="202.5" width="116.88" height="40" as="geometry" />
        </mxCell>
      </root>
    </mxGraphModel>
  </diagram>
</mxfile>
